<?xml version="1.0" encoding="UTF-8"?>
<svg id="Layer_1" data-name="Layer 1" xmlns="http://www.w3.org/2000/svg" xmlns:xlink="http://www.w3.org/1999/xlink" viewBox="0 0 1175 817">
  <defs>
    <style>
      .cls-1 {
        fill: #fcfcfc;
        stroke: #fcfcfc;
      }

      .cls-1, .cls-2, .cls-3, .cls-4, .cls-5, .cls-6, .cls-7, .cls-8, .cls-9, .cls-10, .cls-11, .cls-12, .cls-13, .cls-14, .cls-15, .cls-16, .cls-17, .cls-18, .cls-19, .cls-20, .cls-21, .cls-22, .cls-23, .cls-24, .cls-25, .cls-26, .cls-27, .cls-28, .cls-29, .cls-30, .cls-31, .cls-32, .cls-33, .cls-34, .cls-35, .cls-36, .cls-37, .cls-38, .cls-39, .cls-40, .cls-41, .cls-42, .cls-43, .cls-44, .cls-45, .cls-46, .cls-47, .cls-48, .cls-49, .cls-50, .cls-51, .cls-52, .cls-53, .cls-54, .cls-55, .cls-56, .cls-57, .cls-58, .cls-59, .cls-60, .cls-61, .cls-62, .cls-63, .cls-64, .cls-65, .cls-66, .cls-67, .cls-68, .cls-69, .cls-70, .cls-71, .cls-72, .cls-73, .cls-74, .cls-75, .cls-76, .cls-77, .cls-78, .cls-79, .cls-80, .cls-81, .cls-82, .cls-83, .cls-84, .cls-85, .cls-86, .cls-87, .cls-88, .cls-89, .cls-90, .cls-91, .cls-92, .cls-93, .cls-94, .cls-95, .cls-96, .cls-97, .cls-98, .cls-99, .cls-100, .cls-101, .cls-102, .cls-103, .cls-104, .cls-105, .cls-106, .cls-107, .cls-108, .cls-109, .cls-110, .cls-111, .cls-112, .cls-113, .cls-114, .cls-115, .cls-116, .cls-117 {
        fill-rule: evenodd;
      }

      .cls-2 {
        fill: #a4adad;
        stroke: #a4adad;
      }

      .cls-3 {
        fill: #591d25;
        stroke: #591d25;
      }

      .cls-4 {
        fill: #7f8686;
        stroke: #7f8686;
      }

      .cls-5 {
        fill: #c41c35;
        stroke: #c41c35;
      }

      .cls-6 {
        fill: #891123;
        stroke: #891123;
      }

      .cls-7 {
        fill: #b2b9b9;
        stroke: #b2b9b9;
      }

      .cls-8 {
        fill: #a01a2c;
        stroke: #a01a2c;
      }

      .cls-9 {
        fill: #472d32;
        stroke: #472d32;
      }

      .cls-10 {
        fill: #fdfdfd;
        stroke: #fdfdfd;
      }

      .cls-11 {
        fill: #1f2323;
        stroke: #1f2323;
      }

      .cls-12 {
        fill: #1f2425;
        stroke: #1f2425;
      }

      .cls-13 {
        stroke: #e5e9e9;
      }

      .cls-13, .cls-64, .cls-70 {
        fill: #000;
      }

      .cls-14 {
        fill: #c3142d;
        stroke: #c3142d;
      }

      .cls-15 {
        fill: #252828;
        stroke: #252828;
      }

      .cls-16 {
        fill: #410e16;
        stroke: #410e16;
      }

      .cls-17 {
        fill: #e3e6eb;
        stroke: #e3e6eb;
      }

      .cls-18 {
        fill: #202525;
        stroke: #202525;
      }

      .cls-19 {
        fill: #5c111e;
        stroke: #5c111e;
      }

      .cls-20 {
        fill: #171b1c;
        stroke: #171b1c;
      }

      .cls-21 {
        fill: #f9fafb;
        stroke: #f9fafb;
      }

      .cls-22 {
        fill: #f2f3f3;
        stroke: #f2f3f3;
      }

      .cls-23 {
        fill: #460f19;
        stroke: #460f19;
      }

      .cls-24 {
        fill: #d71835;
        stroke: #d71835;
      }

      .cls-25 {
        fill: #bfc8c8;
        stroke: #bfc8c8;
      }

      .cls-26 {
        fill: #202526;
        stroke: #202526;
      }

      .cls-27 {
        fill: #222728;
        stroke: #222728;
      }

      .cls-28 {
        fill: #bec5c5;
        stroke: #bec5c5;
      }

      .cls-29 {
        fill: #c5152e;
        stroke: #c5152e;
      }

      .cls-30 {
        fill: #720d1b;
        stroke: #720d1b;
      }

      .cls-31 {
        fill: #5d6a6b;
        stroke: #5d6a6b;
      }

      .cls-32 {
        fill: #2f3536;
        stroke: #2f3536;
      }

      .cls-33 {
        fill: #151111;
        stroke: #151111;
      }

      .cls-34 {
        fill: #879497;
        stroke: #879497;
      }

      .cls-35 {
        fill: #7c8484;
        stroke: #7c8484;
      }

      .cls-36 {
        fill: #6d101f;
        stroke: #6d101f;
      }

      .cls-37 {
        fill: #8c1122;
        stroke: #8c1122;
      }

      .cls-38 {
        fill: #676e6e;
        stroke: #676e6e;
      }

      .cls-39 {
        fill: #220a0e;
        stroke: #220a0e;
      }

      .cls-40 {
        fill: #6d7b7b;
        stroke: #6d7b7b;
      }

      .cls-41 {
        fill: #f38988;
        stroke: #f38988;
      }

      .cls-42 {
        fill: #a7182b;
        stroke: #a7182b;
      }

      .cls-43 {
        fill: #b2bdbd;
        stroke: #b2bdbd;
      }

      .cls-44 {
        fill: #6c1723;
        stroke: #6c1723;
      }

      .cls-45 {
        fill: #a21224;
        stroke: #a21224;
      }

      .cls-46 {
        fill: #692732;
        stroke: #692732;
      }

      .cls-47 {
        fill: #af1c31;
        stroke: #af1c31;
      }

      .cls-48 {
        fill: #e31635;
        stroke: #e31635;
      }

      .cls-49 {
        fill: #7c0f1e;
        stroke: #7c0f1e;
      }

      .cls-50 {
        fill: #cad2d2;
        stroke: #cad2d2;
      }

      .cls-51 {
        fill: #bcc6c5;
        stroke: #bcc6c5;
      }

      .cls-52 {
        fill: #6f7978;
        stroke: #6f7978;
      }

      .cls-53 {
        fill: #e40a0e;
        stroke: #e40a0e;
      }

      .cls-54 {
        fill: #a4aeae;
        stroke: #a4aeae;
      }

      .cls-55 {
        fill: #e3e6e6;
        stroke: #e3e6e6;
      }

      .cls-56, .cls-76, .cls-80, .cls-118 {
        fill: #fff;
      }

      .cls-56, .cls-86 {
        stroke: #f7f8f8;
      }

      .cls-57 {
        fill: #424c4d;
        stroke: #424c4d;
      }

      .cls-58 {
        fill: #475356;
        stroke: #475356;
      }

      .cls-59 {
        fill: #b6bebe;
        stroke: #b6bebe;
      }

      .cls-60 {
        fill: #8f0f1f;
        stroke: #8f0f1f;
      }

      .cls-61 {
        fill: #791120;
        stroke: #791120;
      }

      .cls-62 {
        fill: #212627;
        stroke: #212627;
      }

      .cls-63 {
        fill: #c2c7c7;
        stroke: #c2c7c7;
      }

      .cls-64 {
        stroke: #e3e7e7;
      }

      .cls-65 {
        fill: #9e1424;
        stroke: #9e1424;
      }

      .cls-66 {
        fill: #b8c0c5;
        stroke: #b8c0c5;
      }

      .cls-67 {
        fill: #6a0d19;
        stroke: #6a0d19;
      }

      .cls-68 {
        fill: #181d1e;
        stroke: #181d1e;
      }

      .cls-69 {
        fill: #2c3132;
        stroke: #2c3132;
      }

      .cls-70 {
        stroke: #24292a;
      }

      .cls-71 {
        fill: #3a3f45;
        stroke: #3a3f45;
      }

      .cls-72 {
        fill: #7e1121;
        stroke: #7e1121;
      }

      .cls-73 {
        fill: #3d4749;
        stroke: #3d4749;
      }

      .cls-74 {
        fill: #e9ecef;
        stroke: #e9ecef;
      }

      .cls-75 {
        fill: #24090c;
        stroke: #24090c;
      }

      .cls-76 {
        stroke: #fafbfb;
      }

      .cls-77 {
        fill: #727f7f;
        stroke: #727f7f;
      }

      .cls-78 {
        fill: #bc132a;
        stroke: #bc132a;
      }

      .cls-79 {
        fill: #65111f;
        stroke: #65111f;
      }

      .cls-80 {
        stroke: #fbfbfb;
      }

      .cls-81 {
        fill: #d2d9d9;
        stroke: #d2d9d9;
      }

      .cls-82 {
        fill: #b9162e;
        stroke: #b9162e;
      }

      .cls-83 {
        fill: #941225;
        stroke: #941225;
      }

      .cls-84 {
        fill: #670d18;
        stroke: #670d18;
      }

      .cls-85 {
        fill: #bfc5c4;
        stroke: #bfc5c4;
      }

      .cls-86 {
        fill: #f7f8f8;
      }

      .cls-87 {
        fill: #c70d11;
        stroke: #c70d11;
      }

      .cls-88 {
        fill: #810e1c;
        stroke: #810e1c;
      }

      .cls-89 {
        fill: #290c11;
        stroke: #290c11;
      }

      .cls-90 {
        fill: #9d0f20;
        stroke: #9d0f20;
      }

      .cls-91 {
        fill: #6c1320;
        stroke: #6c1320;
      }

      .cls-92 {
        fill: #b11227;
        stroke: #b11227;
      }

      .cls-93 {
        fill: #231314;
        stroke: #231314;
      }

      .cls-94 {
        fill: #bdc1c0;
        stroke: #bdc1c0;
      }

      .cls-95 {
        fill: #f8f9f9;
        stroke: #f8f9f9;
      }

      .cls-96 {
        fill: #d00207;
        stroke: #d00207;
      }

      .cls-97 {
        fill: #909998;
        stroke: #909998;
      }

      .cls-98 {
        fill: #196c18;
        stroke: #196c18;
      }

      .cls-99 {
        fill: #292e2f;
        stroke: #292e2f;
      }

      .cls-100 {
        fill: #202426;
        stroke: #202426;
      }

      .cls-101 {
        fill: #546161;
        stroke: #546161;
      }

      .cls-102 {
        fill: #1c2021;
        stroke: #1c2021;
      }

      .cls-103 {
        fill: #141515;
        stroke: #141515;
      }

      .cls-104 {
        fill: #231315;
        stroke: #231315;
      }

      .cls-105 {
        fill: #791122;
        stroke: #791122;
      }

      .cls-106 {
        fill: #818e8f;
        stroke: #818e8f;
      }

      .cls-118 {
        stroke-width: 0px;
      }

      .cls-107 {
        fill: #232829;
        stroke: #232829;
      }

      .cls-108 {
        fill: #763b44;
        stroke: #763b44;
      }

      .cls-109 {
        fill: #fbfbfc;
        stroke: #fbfbfc;
      }

      .cls-110 {
        fill: #8b9999;
        stroke: #8b9999;
      }

      .cls-111 {
        fill: #181c1d;
        stroke: #181c1d;
      }

      .cls-112 {
        fill: #989d9d;
        stroke: #989d9d;
      }

      .cls-113 {
        fill: #1c541d;
        stroke: #1c541d;
      }

      .cls-114 {
        fill: #321218;
        stroke: #321218;
      }

      .cls-115 {
        fill: #cd1934;
        stroke: #cd1934;
      }

      .cls-116 {
        fill: #2e3334;
        stroke: #2e3334;
      }

      .cls-117 {
        fill: #4e1821;
        stroke: #4e1821;
      }
    </style>
  </defs>
  <g>
    <path class="cls-9" d="M601.75,392.6l2,2c1.33.67,3.33,1,6,1,3.33,0,5.33-.33,6-1h1c.67,0,1-.33,1-1v3c-.67,2-1,3-1,3h-1v4h3-1v2c0,.67-.33,1-1,1l-1-1h-3c-.67-.67-1-1-1-1h-2c-.67.67-2.33,1.67-5,3l-3,3v3c0,1.33.33,2,1,2l2,1h2v2h-2l-2,1h-3l-2-1-1-1h-1v-3h-1v-4c.67-.67,1.33-1,2-1,.67-.67,1-1.67,1-3s.67-3,2-5c1.33-1.33,1.33-2,0-2h-3v-2c0-1.33.67-2,2-2,.67-.67,1.33-1.33,2-2,.67,0,1-.33,1-1Z"/>
    <path class="cls-41" d="M434.75,627.6h1l-1,2c-.67,1.33-1.33,2-2,2v1h-1v1l-1,1-1,1v1l-1,1v1h-1l-1-1h1v-3h1v-1h1v-2l1-1c.67-.67,1-1,1-1h1c.67-1.33,1.33-2,2-2Z"/>
    <path class="cls-62" d="M986.75,733.6l2-5h1l3,17c2,12,4.33,20.33,7,25s4,7.67,4,9v3h-1c0,.67-.33,1-1,1,0,0-1.67,1-5,3s-12,4.33-26,7c-14,4-29.67,5.33-47,4-18-1.33-27.67-3-29-5l-3-4v-3c0-2,.33-3.33,1-4,0-.67-.33-1-1-1l-1-1,14-7c8.67-4.67,15.67-9,21-13,5.33-4.67,8.33-8,9-10,.67-1.33,1.33-2,2-2s1.33-.67,2-2,1.33-2,2-2v-1h1v-1l1-1,1-1v-2h1l1-1h1v1l-1,1v1l-1,1-1,1v1l-1,1-1,1c0,.67-2,3.67-6,9-4,6-6.33,9-7,9s-1,.33-1,1-.67,1.33-2,2-2,1.33-2,2-3.33,3-10,7l-10,7h-2v1h-1v1h-1v1l1,1,1,2v1h1v1h2l28-1c18.67-.67,33-2.33,43-5,9.33-2.67,14.33-4,15-4h1v-2c0-.67-1.33-4-4-10-1.33-6.67-2-13.33-2-20,0-6,.33-10.67,1-14Z"/>
    <path class="cls-102" d="M480.75,17.6v-2h5c.67,0,3.33,1.67,8,5,5.33,3.33,10,7,14,11,4,4.67,6.33,7,7,7s1.67,1,3,3c1.33,2.67,3.33,6.33,6,11,2.67,5.33,4.33,12,5,20s0,14.67-2,20-4.67,10.67-8,16c-3.33,5.33-7.33,9-12,11-4.67,2.67-8.67,6.67-12,12-3.33,6-6.33,9.67-9,11-2.67,2-5.33,3-8,3h-12c-4,0-8,1-12,3-4,2.67-8,4.33-12,5-4,0-8.33-.67-13-2s-7-2.33-7-3-1.33-1.67-4-3c-2-1.33-3.67-4-5-8-2-3.33-3-9.33-3-18v-16l2-3v-2h1v-1h1v-1h1v-1h5l2,16c0,11.33,1,18.67,3,22,2,2.67,3.67,4.67,5,6h8c4,0,9.33-1.67,16-5s12.67-5,18-5,10.33-2.67,15-8c4.67-6,9.67-11,15-15,6.67-4,10.67-7.67,12-11,2.67-2.67,4-5,4-7,1.33-2,1.67-7.33,1-16s-2-15.33-4-20-6.33-10.67-13-18c-6.67-7.33-10.67-11-12-11-.67-1.33-1.33-2-2-2h-1l-1-1c-.67-.67-1.67-1-3-1l-2-1v-1Z"/>
    <path class="cls-6" d="M584.75,379.6c-.67.67-1,1.33-1,2v1c-.67.67-1.67,1-3,1l-2,1h-1v1h-1c-.67.67-1,1-1,1-.67.67-1.33.67-2,0h-1l4-3c3.33-1.33,5-2.67,5-4,.67-1.33.67-2.33,0-3-.67,0-.67-.67,0-2,0-1.33,1.33-1.67,4-1,2.67,0,4,.33,4,1s-.67,1-2,1c-1.33.67-2,1.33-2,2-.67,1.33-1,2-1,2Z"/>
    <path class="cls-1" d="M353.75,241.6h-2l-2,1-2,1h-1v1h-1c-1.33.67-11.33,5-30,13l-27,12h-2l-1,1-1,1h-2v1h-1v1h-1,6l1-1,2-1,28-10c18.67-8,28-12,28-12h3l1-1,2-1h2c.67,0,1.33-.33,2-1l1-1h2l2-1,2-1h3l-1,1h-1v2h-1v1h-1l-1,1-1,1h-1s-3,2.67-9,8c-6.67,4-13.33,8.67-20,14-6.67,4.67-11.33,8.67-14,12s-4,8.67-4,16c-1.33,6.67-2.33,10.67-3,12-.67,2-1.33,3-2,3-.67.67-5,4.67-13,12-8.67,7.33-16.67,11.33-24,12s-11.33.33-12-1c-1.33-1.33-4-4.33-8-9s-6.33-7-7-7-2.33-1.67-5-5-4.67-6.33-6-9c-1.33-2-1.33-3.33,0-4,.67,0,1.67-1.67,3-5,2-3.33,4.67-11.33,8-24s7.67-24,13-34c5.33-10,9.67-16.67,13-20s8.33-8.33,15-15,13.67-14.67,21-24l11-14,1-1,1-1v-2l1-2v-3h-1l-1,1h-2v1h-1v1h-1l-1,1-1,1-6,5c-4,3.33-6.33,5.67-7,7-.67,2-1.33,3-2,3s-2,1.33-4,4c-2.67,3.33-8.67,8.33-18,15s-14.33,10.33-15,11c-1.33.67-2,1.33-2,2s-.33,1-1,1-5,6.67-13,20c-7.33,12.67-13,24-17,34-2.67,10-4.33,15.67-5,17l-1,2v1h-2v-1h-1v-1l-23-12c-14.67-8.67-22-15.67-22-21,1.33-5.33,4.67-13.67,10-25,5.33-12,14.67-28.67,28-50,12.67-21.33,21.67-34.67,27-40s11-11.33,17-18c6.67-7.33,13-14.67,19-22,6.67-6.67,12.67-12,18-16,5.33-2.67,11-4.67,17-6,6.67-1.33,14-2,22-2s16,.67,24,2c8.67,1.33,16,2,22,2,5.33-.67,8.33,7.33,9,24s1.67,28,3,34v30c0,14-1,27-3,39s-3.67,19.67-5,23c-1.33,2.67-6,6-14,10-7.33,4-11.33,6-12,6Z"/>
    <path class="cls-78" d="M641.75,419.6l1,3c.67,2,1,5.33,1,10,0,4,.33,6.33,1,7h-3c-.67,0-1-.33-1-1-.67-.67-2-1.33-4-2s-3.33-.67-4,0l-1,1v-2c0-1.33,1-2.33,3-3,1.33-.67,2-1.33,2-2s-.33-1-1-1-1-.33-1-1v-1l2-1c1.33-.67,2.33-1,3-1s1-1,1-3c.67-2,1-3,1-3Z"/>
    <path class="cls-89" d="M611.75,346.6h1c0,.67.33,1,1,1v2h4v4s-.33,1.33-1,4l-1,4v1h-1v1h-1v4c-.67,0-1.33-.67-2-2,0-1.33-.67-1.33-2,0,0,.67-1.33,1-4,1l-3,1v-1h-1v1h-1v-1h-1v-3l1-8v-7h1v-1h4c2.67.67,4.33.67,5,0,.67,0,1-.33,1-1Z"/>
    <path class="cls-11" d="M441.75,507.6h-4c-1.33,0-2.67-1-4-3l-2-2-2-4c-1.33-2.67-2-4.67-2-6s2.67-.33,8,3c6,4,9,6.67,9,8-.67,2-1,3-1,3,0,.67-.67,1-2,1Z"/>
    <path class="cls-80" d="M1048.75,283.6l2,1c2,.67,5.67,3.67,11,9,5.33,4.67,9.67,10,13,16s8.33,24.67,15,56c8,31.33,12,48,12,50v2l1,2,1,2v2h-3l-1-1-1-1h-2l-1-1c-.67-.67-5.67-3-15-7l-14-6-1-1-1-1h-2l-1-1-1-1h-2v2h2l1,1,1,1h2v1h1l2,2c2.67,1.33,4,7.67,4,19,0,12-.33,18.67-1,20v1l-6,83c-4.67,54.67-8.67,92-12,112-3.33,20.67-7.67,38.33-13,53-4,14.67-6.33,22.33-7,23v2h-3c-1.33,0-4.33-1-9-3s-9.67-3-15-3h-14c-3.33,1.33-8,2-14,2-5.33,0-9.33-.67-12-2-3.33-1.33-5.33-14-6-38v-62c1.33-16.67,2-32,2-46s-1-30.67-3-50l-3-29v-5l8-1c6-.67,9-1,9-1h1v-1h1v-1h1v-1l1-1,1-1v-5c0-.67-.67-3-2-7s-3-7-5-9l-3-4v-1c0-.67-3.33-11.67-10-33s-11-35.33-13-42-2.67-10-2-10,1.67-.67,3-2c1.33,0,6.67-4.67,16-14s15.67-15.67,19-19l5-5v-1h1v-1h1v-1h1v-1h1v-1h1v-1h1v3l-1,4-1,4v3l-1,1-1,1v2l-7,13c-4.67,8.67-7.67,15-9,19-1.33,3.33-2,8-2,14v10l1,1,1,1v1h2v1h6v-1h1v-1h1s.67-2,2-6l2-6v-2h4v2l1,1,1,1,10,26c7.33,17.33,12,26.67,14,28l6,3,1,1,3-1,4-1h2v-1h1v-1h1v-2h1v-1h1v-1l1-1c.67-.67,2-2.33,4-5,2-3.33,3.33-6.67,4-10s.33-5.67-1-7c0-1.33-.33-9-1-23-.67-14.67-2.33-25.33-5-32-2.67-7.33-4-20.33-4-39-1.33-18.67-.33-28.67,3-30,2.67-2,5-4,7-6l4-3h1Z"/>
    <path class="cls-100" d="M135.75,275.6l10-6h1v2h-1l-4,2c-3.33,2-5,3.33-5,4s-1.33,2-4,4c-2,2.67-3.33,4.67-4,6-.67.67-1.33,1-2,1s-2.33,3-5,9-5.33,14.33-8,25-4,16.33-4,17v2l20,4c13.33,2.67,20.33,4,21,4h1l1,1,1,1h3v1h1v3h-9c-5.33,0-13-.67-23-2l-14-2v5l1,1v2h-1l-1-2-1-2v-2c0-1.33-1-2.33-3-3s-3.67-2-5-4-1.33-5.67,0-11c1.33-6,3.33-14,6-24,4-9.33,8-16.67,12-22s9.33-10,16-14Z"/>
    <path class="cls-112" d="M615.75,462.6v1h-1c-.67,0-1.67.33-3,1-1.33,0-2,.33-2,1s-.67,1.33-2,2h-1v-1c.67-.67,1-1.67,1-3,.67-1.33.33-2-1-2s-1.33-1,0-3c.67-2,.67-3.33,0-4s-1-1.33-1-2l1-1c.67,0,1-.67,1-2l1-1h1l1,1h1c1.33.67,2,.33,2-1v-2l2-1c1.33,0,2,2.67,2,8,0,4.67-.33,7.33-1,8-.67,0-1,.33-1,1Z"/>
    <path class="cls-57" d="M924.75,382.6v-1h2v1h1v1h1v1h1v2l-1-1h-2v1h-1v1h-1v1h-1v3c0,2-.33,4.33-1,7l-1,4v4l-1-7c-.67-4-1-6-1-6v-7h1v-1h1v-1h1v-1h1v-1h1Z"/>
    <path class="cls-90" d="M635.75,448.6h1v2c-.67,1.33-1,2.33-1,3,0,0-1,.33-3,1l-3,1c0-.67-.33-1-1-1v-1h-1v-1c0-.67.33-1,1-1s1-.33,1-1l1-1v-2c0-.67,1-.67,3,0,1.33,0,2,.33,2,1Z"/>
    <path class="cls-39" d="M641.75,446.6h1l3,2c1.33,1.33,2,2.67,2,4v2l1,1c.67.67,1.33,1.33,2,2v2h-1s-2.67.33-8,1-9,.33-11-1l-3-1h1c.67,0,1-.67,1-2l-1-2h3c2-.67,3.33-1,4-1,0-.67.33-1.67,1-3v-2l1-2c0-1.33.33-1.67,1-1,.67,0,1.67.33,3,1Z"/>
    <path class="cls-106" d="M307.75,409.6v-1h1c0,.67.33,1,1,1l1,4c.67,2,1,3.33,1,4v1l-1,3-1,3v-3l-1-2c-.67-.67-1.33-2.67-2-6l-1-4h1c.67.67,1,.67,1,0Z"/>
    <path class="cls-58" d="M247.75,420.6l-2,5c-1.33,2.67-2.33,4-3,4v1c0,.67-.33,1-1,1v2h-1v1c-.67,0-.33-1.33,1-4,0-2.67-.33-4-1-4h-2v-1c.67-.67,1.33-2,2-4l2-3h1v-1l2-1c1.33-.67,2-.33,2,1v3Z"/>
    <path class="cls-20" d="M116.75,387.6l-5-28h1l6,19c4.67,12.67,7.67,27,9,43s4,51,8,105,8,91,12,111c2.67,20,6.67,38.33,12,55s8,25,8,25h2c1.33,0,4.33-.67,9-2s11.67-2,21-2c10,0,17.33.33,22,1,5.33.67,8.67.33,10-1,2-1.33,2.67-22.67,2-64,0-42-.33-69.33-1-82s.67-33.67,4-63c3.33-29.33,7-52,11-68l6-24v-3l1-2v-1c.67,0,1-.33,1-1v-1l-1,1h-1v1h-1c0,.67.33-.33,1-3v-3c.67-.67.67-1,0-1v-2h1v-2h1v-2h2c.67,0,.67-.33,0-1v-1c0-.67,1-2,3-4l2-4h1v1l1-1,1-1v-1h3l-1,1v2h3l-7,31c-4,21.33-6.67,34.67-8,40v33c0,16,.67,29.67,2,41,1.33,10.67,2.33,38.33,3,83s1.67,70,3,76c0,6,1,10.33,3,13,2,3.33,3,5.67,3,7s-.33,2.33-1,3v2l-7,2c-4,1.33-6.67,3.33-8,6-2,2.67-3,4.33-3,5-.67,0-1,.33-1,1v1s-.33.33-1,1h-5c-2.67,1.33-12,2-28,2s-27.33.67-34,2-12,2.33-16,3-7,0-9-2c-2-1.33-5-10.33-9-27-5.33-16-9.33-32-12-48-4-16.67-6.67-34.67-8-54-1.33-20-2.67-56.67-4-110-1.33-52.67-3.67-88.67-7-108ZM253.75,597.6h-1l-2-14c-.67-9.33-1-19.67-1-31,1.33-11.33,2-17.33,2-18s.67,2.33,2,9c1.33,7.33,1.67,18,1,32,0,14.67-.33,22-1,22Z"/>
    <path class="cls-84" d="M593.75,411.6h1v5c-.67,1.33-1,2-1,2-.67.67-2,1.67-4,3l-4,2v4h-2l-1,1-1,1h-2c-2,0-3-.33-3-1h-1c0-.67.67-1.67,2-3,.67-1.33,1.33-2,2-2s.67-.33,0-1v-2c-.67-.67,1-2,5-4,3.33-2,5.33-3,6-3v-1l1-1c0-.67.33-.67,1,0h1Z"/>
    <path class="cls-92" d="M594.75,399.6h5c1.33,0,1.33.67,0,2-1.33,2-2,3.67-2,5s-.33,2.33-1,3c-.67,0-1.33.33-2,1v1h-2c-.67-.67-1-.67-1,0l-1,1h-1c-.67.67-2,.67-4,0s-3-1.33-3-2c-.67-.67-1-.67-1,0s-.33,1-1,1h-1v-2h1v-1h1v-1l1-2,1-1v-2h-4v-1h3l4,1c2.67.67,4.33.33,5-1s1.67-2,3-2Z"/>
    <path class="cls-117" d="M568.75,443.6v2h-1v1l-1,1-1,1v1l-1,1-1,1v2h-1v1h-1v1c-.67,0-1.33-1-2-3l-2-2h1c.67.67,1,1,1,1h1l1,1h1l1-5c.67-4,1.67-6,3-6,1.33.67,2,1.33,2,2Z"/>
    <path class="cls-45" d="M618.75,365.6l1-2h4v10h-10c0-.67-.33-1-1-1,0-.67.33-1,1-1s1-.67,1-2l-1-1,1-1h3s.33-.67,1-2Z"/>
    <path class="cls-105" d="M667.75,413.6h2l2-1h1v1l1,1-1,5c0,2.67-.33,4-1,4-1.33.67-2,2-2,4-1.33,2.67-1.67,4-1,4v2c-.67,0-1-.67-1-2-.67-.67-1.67-1-3-1h-2v-1c.67-1.33,1-3,1-5s.67-3,2-3c.67-.67,1-1.33,1-2v-4c0-1.33.33-2,1-2Z"/>
    <path class="cls-2" d="M896.75,441.6l1-3v2l1,3c.67,2,1,3,1,3l-1,23c-.67,14.67-1,23.33-1,26v9h1l1,2c0,1.33.33,2.33,1,3h-4v-1h-1v-1h-1v-1h-1v-1l-1-2c-.67-.67-.33-10.67,1-30l2-28s.33-1.33,1-4Z"/>
    <path class="cls-113" d="M489.75,426.6v1h-1c-.67,0-1.67-.67-3-2h-3l-1,1h-1v3h-1v-6c0-4.67.67-6.33,2-5l5,5c2,1.33,3,2.33,3,3Z"/>
    <path class="cls-38" d="M563.75,566.6l2-1,3,1c2,0,2.67,1,2,3s-2.33,3.67-5,5c-3.33,2-5,3-5,3h-1v3l-1-5-1-5v-1l2-1c.67-.67,1.33-1,2-1s1.33-.33,2-1Z"/>
    <path class="cls-63" d="M609.75,404.6h2v1h1c.67.67,1,1.33,1,2v4h1c.67.67,1.33,1.33,2,2,1.33,1.33,3,2,5,2,1.33,0,2,.67,2,2v1c-.67.67-1,1-1,1h-1s-.67.67-2,2-3.33,2-6,2-4.33-.33-5-1l-1-2v1h-1l-1,1h-2v2h2l1,1h-1v1h-3c0-.67-.33-1-1-1h-1v-1h-1v-1h-1v-1h-1v-1h-1v-1h1v-1h5l2-1h2v-2h-2l-2-1c-.67,0-1-.67-1-2v-3l3-3c2.67-1.33,4.33-2.33,5-3ZM614.75,415.6c.67-.67,1-.67,1,0,0,1.33,0,1.67,0,1-1.33-.67-1.67-1-1-1Z"/>
    <path class="cls-21" d="M161.75,350.6v1l-1,2-1,1v1h-2v-3h-1v-1h-3l-1-1-1-1h-1c-.67,0-7.67-1.33-21-4l-20-4v-2c0-.67,1.33-6.33,4-17s5.33-19,8-25,4.33-9,5-9,1.33-.33,2-1c.67-1.33,2-3.33,4-6,2.67-2,4-3.33,4-4s1.67-2,5-4l4-2h1v-1l3-1c1.33,0,4,1.33,8,4,4,4,6.33,6.33,7,7s1,2,1,4c-1.33,2-1.33,11.33,0,28,0,16.67-.67,27-2,31s-2,6.33-2,7Z"/>
    <path class="cls-27" d="M857.75,772.6l-1,1h-2v1h-1v1h-1v1h-1v1h-1v1h-1v2h12c7.33-.67,13-1,17-1h6v2h-7c-4,0-10,1-18,3l-12,2v-1h-4v-1h-1v-1h-1v-4l1-2,1-2,3-4c2-2.67,6-5.33,12-8,6-1.33,13-3.33,21-6,8-1.33,14.33-3.67,19-7,4.67-2.67,10.67-6.67,18-12s11-8.33,11-9,.33-1,1-1,1-.33,1-1,.33-1,1-1,1.67-1,3-3c1.33-1.33,2.67-2.33,4-3,.67,0,.67,1.67,0,5-1.33,2.67-3.33,6-6,10s-4.33,6-5,6-1,.33-1,1-2.33,2.67-7,6-7,5.33-7,6-2.67,2.33-8,5-14,5.33-26,8c-12.67,2.67-19.33,4.33-20,5Z"/>
    <path class="cls-108" d="M590.75,386.6h3v1h1s.33.33,1,1c0,.67.67,1,2,1h2c1.33.67,2,1.33,2,2v1c0,.67-.33,1-1,1-.67.67-1.33,1.33-2,2-1.33,0-2,.67-2,2v2h-2c-1.33,0-2.33.67-3,2s-2.33,1.67-5,1l-4-1-1-1-1-1h-3v-1h1l1-1h1l1-1,1-1,3-1c1.33-.67,2.67-2.33,4-5,0-2,.33-3,1-3Z"/>
    <path class="cls-31" d="M916.75,411.6l3-18s.33,2,1,6l1,7-2,21c-1.33,14.67-2,22-2,22,0,0-.33-2.67-1-8l-1-8v2c-.67,1.33-1,2.33-1,3h-1v-5c0-3.33,1-10.67,3-22Z"/>
    <path class="cls-49" d="M630.75,365.6l1-4v1c0,.67.67,1,2,1,2,0,3,.33,3,1v2c-.67.67-1,1.67-1,3,0,2-.33,3.33-1,4-1.33,0-2-.33-2-1-.67-1.33-1-1.67-1-1l-2,1v-1c0-.67.33-2.67,1-6Z"/>
    <path class="cls-71" d="M345.75,244.6h1v5h-1s-9.33,4-28,12l-28,10-2,1-1,1h-6,1v-1h1v-1h2l1-1,1-1h2l27-12c18.67-8,28.67-12.33,30-13Z"/>
    <path class="cls-34" d="M239.75,425.6l1,1c.67.67,1,1.33,1,2s.33,1,1,1v1c0,.67-.33,1-1,1v2c0,1.33-.33,2-1,2s-1.67,1.33-3,4-2.33,4-3,4-1,.33-1,1-.33,1-1,1c-.67-.67-1.33-.67-2,0,0,.67-.33,1-1,1h-1v-1c.67-.67,2.33-4,5-10l5-9h1v-1Z"/>
    <path class="cls-52" d="M607.75,372.6h1l1,1s.33.33,1,1,.67,1,0,1h-1l1,4c.67,2.67,1.33,4,2,4l1-2c0-2,.33-3,1-3s1,.33,1,1v1l1,3c.67,1.33,1.67,2.33,3,3s2,.33,2-1c0-2,.33-3,1-3l-1,3c0,2.67-.67,4.33-2,5-1.33,1.33-2,2-2,2v-1c0-1.33-1.33-2-4-2s-4-.33-4-1-.33-1-1-1-1-1-1-3-.33-3-1-3-1-.67-1-2v-4l-1-2h1c.67,0,1.33-.33,2-1Z"/>
    <path class="cls-36" d="M652.75,410.6l-1-2,2,1h10v1l1,1v2h-13s.33-.33,1-1,.67-1.33,0-2Z"/>
    <path class="cls-44" d="M594.75,416.6v-2h1v3h1l1,1,2,1h-2v1h-1v1h1v1h1v1h1v1h1v1h1c.67,0,1,.33,1,1v2c-.67,1.33-1,2.33-1,3v2h-4v1h-1v1h-1c-.67,0-2.33-.67-5-2l-4-1h-1v-1h-2v-2h-2l1-1,1-1h2v-4l4-2c2-1.33,3.33-2.33,4-3,0,0,.33-.67,1-2Z"/>
    <path class="cls-18" d="M249.75,728.6l14,15c9.33,10.67,19.33,19.33,30,26,10.67,7.33,16,11.33,16,12v8h-1s-.67,1-2,3-3.67,3.67-7,5c-4,1.33-13.67,1.33-29,0-15.33,0-28.33-1.33-39-4s-18.67-5-24-7l-8-3v-4c0-2.67.33-4.67,1-6s2-5,4-11l3-8,1-1,1-2v-4,10l-2,8c-1.33,4.67-2.33,7.33-3,8s-1,1.33-1,2v1l-1,2v2l9,2c6.67.67,14.67,2,24,4,10,2,20,2.67,30,2s17.33-1,22-1h10v-4h-1v-1h-1v-1h-2l-2-1c-.67-.67-2.67-1.67-6-3-2.67-2.67-5.33-5-8-7-2-2.67-3.33-4-4-4s-1-.33-1-1-.33-1-1-1-2.33-1.67-5-5c-3.33-4-6.33-8.67-9-14l-6-8v-1c0-.67-.67-2-2-4l-1-3c.67-.67,1-1,1-1Z"/>
    <path class="cls-111" d="M1050.75,271.6v6c0,2-.33,3-1,3l-1,1h-1v2l-4,3c-2,2-4.33,4-7,6-3.33,1.33-4.33,11.33-3,30,0,18.67,1.33,31.67,4,39,2.67,6.67,4.33,17.33,5,32,.67,14,1,21.67,1,23,1.33,1.33,1.67,3.67,1,7s-2,6.67-4,10c-2,2.67-3.33,4.33-4,5l-1,1v1h-1v1h-1v2h-1v1h-1v1h-2v-1l1-3v-3h1v-2c0-.67.33-1.67,1-3,.67-.67,1.67-2.33,3-5s1.67-6,1-10-1-11-1-21-1-18.33-3-25-3.67-12.67-5-18c-2.67-5.33-4-15.67-4-31l-1-24h-2l-1,1-1,1h-2l-1,1-10,5c-5.33,3.33-9.33,9-12,17l-2,12-1,1-1,1v2h-1v1h-1v-2l1-1,1-1v-3l1-4,1-4v-3h-1v1h-1v1h-1v1h-1v1h-1v1h-1v1l-5,5c-3.33,3.33-9.67,9.67-19,19s-14.67,14-16,14c-1.33,1.33-2.33,2-3,2s0,3.33,2,10,6.33,20.67,13,42,10,32.33,10,33v1l4,12c2,7.33,3.33,11,4,11s1-.33,1-1l1-1v4l-1,1-1,1v1h-1v1h-2c-.67-.67-3.67-.67-9,0-6,0-9,1-9,3v4h-2v1h-1v-3c0-2.67-.67-5-2-7s-3-9.67-5-23c-2-12.67-5-27.33-9-44l-4-25-1-1-1-1v-4h-1v-1h-1v-1h-1v-1h-2v1h-1v1h-1v1h-1v1h-1v1h-1v7l-3,18c-2,11.33-3,18.67-3,22v5l-1,10c-.67,6.67-1,11-1,13v3l-1,12c-.67,8-1,14-1,18v6h-1v1h-1v1h-1v1h-4l-2,1h-3v-9c0-2.67.33-11.33,1-26l1-23v-7l1-8c.67-5.33,1-12.67,1-22,1.33-9.33,2.67-18,4-26l2-12v-1c0-.67,1.33-3.67,4-9l3-9c.67,0,1-.33,1-1h1v-1c.67,0,1-.33,1-1h2l2-1h4l1-1h3v1h1v1h3v-3,1c.67.67,2.67.33,6-1,2.67-1.33,5.33-3,8-5s4-3.33,4-4,.33-1,1-1,3.67-3.33,9-10,7.33-11.33,6-14c-.67-3.33-1-5-1-5-.67-.67-1-1-1-1v-1h-1v-4c-.67-2-1-3-1-3v-2c0-1.33-1.33-5.67-4-13s-6.67-16.33-12-27c-5.33-10.67-9.67-17.67-13-21-3.33-4-9-10.33-17-19s-15-16.33-21-23l-9-11v-1l-1-2-1-1v-4h2l1,1h1l1,1,1,1h1v1h1l16,14c10.67,9.33,16,14.33,16,15s4.33,4.67,13,12c8.67,8,15.33,15.67,20,23s9,15.33,13,24,6.67,15.33,8,20,2.33,7.67,3,9v2h2v-1h1v-1h1c.67,0,2.33-.67,5-2s9.67-5.33,21-12c11.33-6,17.33-10.33,18-13s-.33-7.67-3-15c-2.67-6.67-8.33-17.67-17-33s-15.33-27.33-20-36c-4.67-8-9-15-13-21-4-5.33-9.33-11.33-16-18-6.67-6-14-14-22-24-6.67-9.33-11.67-15.33-15-18-2.67-2-4-3.33-4-4s-4.33-2.67-13-6c-8-2.67-16-4.33-24-5s-17.33,0-28,2c-11.33,2-19.67,2.67-25,2l-8-1-2,24c-.67,16-1.67,27.33-3,34v27c0,11.33,1.33,24.33,4,39,1.33,14.67,3.33,23,6,25l6,6c2.67,2,4.33,3,5,3h1v1h1v1h1v3h1v1h-6v1l1,1v1h1v1l1,1c1.33.67,2,1.33,2,2l9,7c6,5.33,13,10.33,21,15,7.33,4.67,11.33,8,12,10,1.33,2,2,3.67,2,5v1l1,1v2h-1v7h-1v-1h-1v-1l-1-3-1-2v-2c0-.67-.67-2-2-4s-5.33-4.67-12-8c-6-2.67-12.67-6.67-20-12-6.67-4.67-11.33-8-14-10-2.67-2.67-5.33-5.67-8-9s-6.67-9-12-17-10.67-19-16-33-8.67-25-10-33l-1-13h2v1l1,1v1l1,2,1,1,5,15c3.33,9.33,5.67,15.33,7,18s2.33,4.67,3,6l1,1v2l1,1,1,1v3h2v-3l-1-3-1-2v-2c0-2-.67-6.67-2-14-1.33-8-1.67-19.33-1-34,.67-15.33,1-31,1-47s-1.33-27-4-33c-2.67-5.33-4.67-8-6-8-.67,0-4.67-3-12-9s-14-10.67-20-14c-5.33-3.33-11-6.33-17-9-6-1.33-11-2-15-2-4.67,1.33-9.33,3-14,5s-8.67,4.67-12,8c-4,2.67-7.67,7-11,13s-5.33,13.33-6,22c-.67,9.33.33,16.67,3,22,1.33,4.67,4.67,8.67,10,12,5.33,4,10.33,9.33,15,16s10.33,10,17,10c6.67,1.33,12.67,3.33,18,6,4.67,2.67,9.33,4.33,14,5,4,.67,6.67.33,8-1,1.33,0,3.33-1.33,6-4,2-2.67,4-6,6-10,1.33-4,2.33-8.33,3-13l1-7-1-2-1-3v-2h2v4l1,2,1,2-1,11c-.67,8-2,14.33-4,19-2.67,4.67-6.33,8.33-11,11s-9.33,3.67-14,3c-4-.67-8.67-2.33-14-5s-11.33-3.67-18-3c-6.67,0-13-3-19-9-5.33-6.67-10.67-11.33-16-14-4.67-2.67-8.67-6-12-10-3.33-3.33-5.67-7.33-7-12s-2-11.33-2-20,1-16.67,3-24c2-6.67,5-12.67,9-18s8.33-10,13-14c4-4,8.67-7,14-9s9.33-3.67,12-5h13c6,1.33,13,4,21,8s15.67,9.33,23,16c8,6.67,13.33,11.33,16,14,2.67,3.33,5,6,7,8,1.33,2.67,6.33,4.67,15,6,8.67,2.67,16,3.33,22,2,5.33,0,12.67-.67,22-2s18-2,26-2c7.33,1.33,14.67,3.33,22,6s12.67,5.33,16,8c4,2.67,6,4.33,6,5s.33,1,1,1,1,.33,1,1,1.33,2.33,4,5c2.67,2,6.33,6.33,11,13,5.33,6.67,8.33,10,9,10s1.33.33,2,1c0,1.33.33,2,1,2s1.33.67,2,2c.67,1.33,1.33,2,2,2s1,.33,1,1,2,2.33,6,5c4,3.33,8,7.33,12,12,4,5.33,10.33,15,19,29s15.67,25.33,21,34c5.33,8.67,9.33,17,12,25,4,8,6.67,16,8,24,1.33,8.67,2.33,13.33,3,14Z"/>
    <path class="cls-65" d="M607.75,345.6h5c.67,0,1,.33,1,1v1h-2c-.67,0-2.67.33-6,1h-5v-1c.67-.67,1-1,1-1,0-.67,2-1,6-1Z"/>
    <path class="cls-4" d="M682.75,541.6c.67-3.33,1.33-5.33,2-6h4c2,0,3,1.33,3,4s-.67,4.33-2,5c-.67.67-2,1.33-4,2-2,0-3-1.67-3-5Z"/>
    <path class="cls-55" d="M481.75,521.6h-2v-1h-1v-1h-1v-3h2l2-1,5-2c2.67-1.33,5-1.67,7-1,2,0,2.67,3.67,2,11,0,7.33-1.67,11-5,11-3.33.67-5.33,1-6,1s-.67-1,0-3,2.33-3.67,5-5,4-2.67,4-4c0-2-1.67-3-5-3-2.67.67-5,1-7,1Z"/>
    <path class="cls-24" d="M573.75,357.6h2v4h1l-1,2c0,.67-.33,1.67-1,3v2h-1l-2,1s-.33.33-1,1c0,.67-1,1.33-3,2l-2,1h-2l-1,2-1,3v1h2l2,1c1.33.67,2,1.33,2,2-.67.67-1,1.33-1,2h-1v1h1l1,1c.67,0,1,.33,1,1l1,1v-1h1c.67,0,1-.33,1-1h2c.67.67,1.33.67,2,0,0,0,.33-.33,1-1h1c.67,0,1-.33,1-1l2-1c1.33,0,2.33-.33,3-1,0,.67.67,1,2,1h1l2,1c1.33,0,2,.33,2,1v1c-.67,0-1,1-1,3-1.33,2.67-2.67,4.33-4,5l-3,1-1,1-1,1h-1l-1,1h-3c-1.33.67-2.33,1-3,1l-1,1h-1c0,.67-.67,1.33-2,2l-3,2v1h-1v1h1v1h3l1-1,2-1,3-1c2-.67,3.33-1.33,4-2h5v2l-1,1-1,2v1l-1,1v1h-1v1l-1,2c-.67,1.33-1,2.67-1,4v1c-.67.67-2,2-4,4-1.33,2-3.33,4-6,6l-4,3v4c-.67,0-1,.33-1,1l-1,2c-1.33,1.33-2,2.33-2,3v1l-1,1v1h-1l-1-1h-1l-2-1h-2v-2l-1-1c-.67-.67-1.67-2.67-3-6s-2-8.67-2-16c-1.33-7.33-1-14.33,1-21l3-10v-2h1l6-9c4-6,6.33-9,7-9s2-1.33,4-4c2.67-2,4.33-3.33,5-4s1-1,1-1Z"/>
    <path class="cls-19" d="M662.75,385.6h-1l-2-3c-.67-2-1.33-3-2-3-1.33,0-2-.33-2-1s-.33-1-1-1-1-.33-1-1-.33-1-1-1-1.67-1.33-3-4-1-4,1-4c2,.67,3,1.33,3,2,0,1.33,1,2.33,3,3,2,1.33,3,3,3,5,.67,1.33,1.33,2,2,2s1.33,1,2,3c0,2-.33,3-1,3Z"/>
    <path class="cls-50" d="M907.75,371.6l-2,12c-1.33,8-2.67,16.67-4,26,0,9.33-.33,16.67-1,22l-1,8v7s-.33-1-1-3l-1-3v-6c0-2.67.33-9,1-19v-20c.67-2,1.33-6.67,2-14l2-10h1c.67,0,1.33-.33,2-1,0-.67.33-.67,1,0s1,1,1,1Z"/>
    <path class="cls-12" d="M1071.75,450.6v-1l1,4v5l-1,59c0,40-1.33,70.67-4,92-2.67,20.67-5.33,38-8,52-2.67,13.33-6.33,28.33-11,45-5.33,16.67-9.33,25.67-12,27-2.67,0-8.33-1-17-3-8-2-14-3-18-3h-11v1h-3c-1.33.67-4.67,1-10,1-4.67,0-10-1-16-3l-9-3-1-1v-1c0-.67-.67-1.67-2-3-.67-2-2.67-3-6-3l-4-2h-2v-1h5l5,1h2v-2c0-2,.33-4.67,1-8s1-18,1-44v-45c0-4,.67-9,2-15,0-5.33.67-14.67,2-28,0-14-.67-28-2-42l-2-21-1,1c-.67,1.33-1,2.33-1,3v1h-1v-3c.67-1.33,1.33-4.67,2-10l1-8h1v-1h2l1,1,3,29c2,19.33,3,36,3,50s-.67,29.33-2,46v62c.67,24,2.67,36.67,6,38,2.67,1.33,6.67,2,12,2,6,0,10.67-.67,14-2h14c5.33,0,10.33,1,15,3s7.67,3,9,3h3v-2c.67-.67,3-8.33,7-23,5.33-14.67,9.67-32.33,13-53,3.33-20,7.33-57.33,12-112l6-83h1Z"/>
    <path class="cls-69" d="M987.75,381.6h4v1h1v1h1l8,18c5.33,12,9,21,11,27,2.67,6,4.33,9.33,5,10s1,1,1,1h1l2,1,1,1,3-1c2.67-.67,4-1.33,4-2s.33-1,1-1h1v2c0,1.33-.33,2.67-1,4l-1,1v1l-4,1-3,1-1-1-6-3c-2-1.33-6.67-10.67-14-28l-10-26-1-1-1-1v-2h-4v2l-2,6c-1.33,4-2,6-2,6h-1v1h-1v1h-6v-1h-2v-1h3v1h1v-1h2v-1h1v-1h1v-1s1-2.33,3-7l2-7h1l1-1h1Z"/>
    <path class="cls-72" d="M639.75,351.6l2,3c.67,2,2,3.67,4,5,1.33,0,2,.33,2,1h1v1h2v2h-4v1h-1v1c0,1.33-.67,1.67-2,1l-1-1h-4v-4l-1-3v-1h-1c-.67,0-1-.33-1-1l2-1c.67,0,1-.67,1-2,.67-1.33,1-2,1-2Z"/>
    <path class="cls-33" d="M441.75,513.6h1v1h1v1h1l1,1,1,1h2v1h1v5c0,2-.67,4-2,6s-1.67,4-1,6,1.67,4.67,3,8c2.67,4,4,7,4,9,.67,2,1.33,3.33,2,4,1.33.67,2.67,1,4,1h2l2,1,1,1h4v-1h1v-1h1v-1h1l1,1c.67,1.33,1.33,2,2,2v1h1v1h2c.67,0,1,.33,1,1h-1v2h1l1,1h16c8,0,16.67-1,26-3,8.67-2,14-3,16-3h3l1-1,2-1h3v1l-1,1v1l-1,1h-1v1h-1v1h-1v1h-1c0,.67-1,1.33-3,2-1.33.67-2.33,1.67-3,3-.67,2-3,4-7,6l-6,2h-2c-.67,0-4,1.33-10,4-5.33,1.33-10.33,2-15,2s-12-2.67-22-8l-15-8h-1l-2-1-2-1h-17c-2,1.33-4.67,2-8,2h-5v-1h-1v-1h-2v-2h-2v-1h-1v-1h-1v-3h4c2.67-.67,5-1,7-1s5-1,9-3c3.33-2,5.33-3.67,6-5,1.33-1.33,1-3.33-1-6s-3-5.67-3-9v-7h-2l-1,1c-.67.67-1.33,1-2,1-.67,1.33-2.33,2-5,2h-3v-1h-1v-1h-2v-1h-1v-1h-2v-2h2v-1h1v-1h1l8-4c5.33-2.67,8.33-4.33,9-5,1.33-.67,2-1,2-1Z"/>
    <path class="cls-42" d="M565.75,434.6v-1h2c.67,0,.67,1,0,3,0,2,.67,3.33,2,4l2,1v2c-.67,0-1,.33-1,1h-1v1h-1v-2c0-.67-.67-1.33-2-2-1.33,0-2.33,2-3,6l-1,5h-1l-1-1h-2c-.67-.67-1-1-1-1-.67-.67-1.67-2-3-4l-2-4h-1v-2h1c.67,0,1,.33,1,1s.33,1,1,1l1,1h1l1,1h1v-1l1-1v-1c0-.67.67-1.67,2-3l1-2c.67,0,1-.33,1-1,.67,0,1-.33,1-1h1Z"/>
    <path class="cls-66" d="M248.75,371.6l4-7h1c.67,0,.33,1.67-1,5-1.33,4-4,9-8,15-4.67,6-7,9-7,9v1h-3v-1c0-.67.33-1,1-1s1.33-.67,2-2l2-2v-1l1-1,1-1v-2c.67,0,1-.33,1-1h1v-3c0-.67,1.67-3.33,5-8Z"/>
    <path class="cls-30" d="M632.75,435.6v-1l1,1c0,.67,1,1.33,3,2,2,0,3.33.33,4,1,0,.67.33,1,1,1v1c.67.67.67,1,0,1s-1,.33-1,1v1s.33.33,1,1v1h1v1h-1c-1.33-.67-2.33-1-3-1-.67-.67-1-.33-1,1l-1,2h-1c0-.67-.67-1-2-1-2-.67-3-.67-3,0v2c-.67,0-1.33-1.67-2-5l-2-5h3l1-1,1-1,1-2Z"/>
    <path class="cls-115" d="M640.75,351.6v-1l8,5c6,4,11,8.33,15,13s7.33,10.33,10,17c2.67,6,4.33,10,5,12s1,6,1,12v11c0,.67-.33,1-1,1s-1.33,2-2,6c-.67,3.33-1.33,5.33-2,6v1h-1v2h-1v1h-1v1h-1v1h-1v1l-1-1-1-1v-2l-1-1v-1h3v-1c0-.67-.33-1-1-1v-1c-.67,0-.33-1.33,1-4,0-2,.67-3.33,2-4,.67,0,1-1.33,1-4l1-5-1-1v-1h-1l-2,1h-2c-.67,0-1,.67-1,2v2c-.67-.67-1-1-1-1,0-.67-1.33-1-4-1l-4-2h7v-2l-1-1v-1h-4c-2,0-3.33.33-4,1h-2v-1c0-.67-.33-1-1-1h-1c-.67.67-2.67,1-6,1h-4l-1,1-1,1h-2v-6h1v-2c.67-.67,1-1.33,1-2,0-1.33.33-4,1-8s.33-7-1-9c0-2-1.67-3-5-3l-4,1v-1c0-.67.33-1,1-1,.67-.67,1.33-1.33,2-2,0-1.33-.67-2-2-2h-1v-1h-1v-3l4-3c1.33-1.33,2.33-2.33,3-3v-1h9v-1h1v-1h4v-2h-2v-1h-1c0-.67-.67-1-2-1-2-1.33-3.33-3-4-5l-2-3h1ZM662.75,385.6h-1l-2-3c-.67-2-1.33-3-2-3-1.33,0-2-.33-2-1s-.33-1-1-1-1-.33-1-1-.33-1-1-1-1.67-1.33-3-4-1-4,1-4c2,.67,3,1.33,3,2,0,1.33,1,2.33,3,3,2,1.33,3,3,3,5,.67,1.33,1.33,2,2,2s1.33,1,2,3c0,2-.33,3-1,3ZM633.75,371.6h2c0,.67-.33,1.33-1,2h-2c0-1.33.33-2,1-2ZM668.75,390.6c2,.67,2.33,1,1,1-.67,0-1.33.67-2,2-.67.67-.67,1.33,0,2,1.33,0,2,2,2,6,.67,4,.67,6,0,6s-1.33-.67-2-2c0-1.33-.67-4.33-2-9s-1.67-7-1-7,2,.33,4,1Z"/>
    <path class="cls-98" d="M464.75,389.6l1-1v7h1v1h1v1l1,2v1h-1l-1,1h-3c-1.33,0-4,.67-8,2l-6,2-2,1h-4l7-6c4.67-3.33,7.33-5.33,8-6l1-1h1v-1h1v-1h1l1-1h1v-1Z"/>
    <path class="cls-10" d="M3.75,405.6V-2.4h1225v816H3.75v-408ZM484.75,15.6h1c.67,0,3.33,1.67,8,5,5.33,3.33,10,7,14,11,4,4.67,6.33,7,7,7s1.67,1,3,3c1.33,2.67,3.33,6.33,6,11,2.67,5.33,4.33,12,5,20s0,14.67-2,20-4.67,10.67-8,16c-3.33,5.33-7.33,9-12,11-4.67,2.67-8.67,6.67-12,12-3.33,6-6.33,9.67-9,11-2.67,2-5.33,3-8,3h-12c-4,0-8,1-12,3-4,2.67-8,4.33-12,5-4,0-8.33-.67-13-2s-7-2.33-7-3-1.33-1.67-4-3c-2-1.33-3.67-4-5-8-2-3.33-3-9.33-3-18v-16l2-3v-2h1v-1h1v-1h1v-1h5l2,16c0,11.33,1,18.67,3,22,2,2.67,3.67,4.67,5,6h8c4,0,9.33-1.67,16-5s12.67-5,18-5,10.33-2.67,15-8c4.67-6,9.67-11,15-15,6.67-4,10.67-7.67,12-11,2.67-2.67,4-5,4-7,1.33-2,1.67-7.33,1-16s-2-15.33-4-20-6.33-10.67-13-18c-6.67-7.33-10.67-11-12-11-.67-1.33-1.33-2-2-2h-1l-1-1c-.67-.67-1.67-1-3-1l-2-1h-1c-.67-.67-3.33-1-8-1-5.33,0-10.67,1.33-16,4-4.67,1.33-12,6-22,14-9.33,7.33-15.33,12.67-18,16s-6,6.33-10,9c-4,2.67-6.67,6.33-8,11v34c1.33,19.33,2,34.67,2,46v27h1v1h1v-1h2v-3l1-1,1-1v-2c0-.67,1-3,3-7l3-6v-3l1-2,1-1v-1h1v1h1l-1,11c-.67,7.33-3,17.33-7,30-4,12-8.33,22.67-13,32s-10.33,18-17,26c-7.33,8-14.67,15-22,21-8,6-14.67,10.33-20,13-6,3.33-9.67,9-11,17-2,8-4.33,13.67-7,17-2.67,4-8,8-16,12s-12.67,6-14,6h-3l-1,1-1,1h1v1h1v1h1c1.33.67,2.67,3.33,4,8,2.67,4.67,5.33,13.67,8,27s4.33,20.33,5,21c.67,1.33,1,2.67,1,4v1l1,1,2,2c2,1.33,3,2.33,3,3v1l1,4c.67,2,1,3.33,1,4v2l1,2,1,2v2c0,1.33.33,3.33,1,6v3h-1l-1,1h-1l-2,1-1,1h1-6c-2,0-3.33-.33-4-1s-1.67-2.33-3-5c-2-2.67-4-8-6-16l-3-12s-1.67-3.67-5-11l-5-11v-2h-1v-1h-1v-1h-4v1h-1v1h-1v2h-1l-1,1v2h3l-7,31c-4,21.33-6.67,34.67-8,40v33c0,16,.67,29.67,2,41,1.33,10.67,2.33,38.33,3,83s1.67,70,3,76c0,6,1,10.33,3,13,2,3.33,3,5.67,3,7s-.33,2.33-1,3v2l-7,2c-4,1.33-6.67,3.33-8,6-2,2.67-3,4.33-3,5-.67,0-1,.33-1,1v1l14,15c9.33,10.67,19.33,19.33,30,26,10.67,7.33,16,11.33,16,12v8h-1s-.67,1-2,3-3.67,3.67-7,5c-4,1.33-13.67,1.33-29,0-15.33,0-28.33-1.33-39-4s-18.67-5-24-7l-8-3v-4c0-2.67.33-4.67,1-6s2-5,4-11l3-8,1-1,1-2v-4,10l-2,8c-1.33,4.67-2.33,7.33-3,8s-1,1.33-1,2v1l-1,2v2l9,2c6.67.67,14.67,2,24,4,10,2,20,2.67,30,2s17.33-1,22-1h10v-4h-1v-1h-1v-1h-2l-2-1c-.67-.67-2.67-1.67-6-3-2.67-2.67-5.33-5-8-7-2-2.67-3.33-4-4-4s-1-.33-1-1-.33-1-1-1-2.33-1.67-5-5c-3.33-4-6.33-8.67-9-14l-6-8v-1c0-.67-.67-2-2-4l-1-3h-5c-2.67,1.33-12,2-28,2s-27.33.67-34,2-12,2.33-16,3-7,0-9-2c-2-1.33-5-10.33-9-27-5.33-16-9.33-32-12-48-4-16.67-6.67-34.67-8-54-1.33-20-2.67-56.67-4-110-1.33-52.67-3.67-88.67-7-108l-5-28-1-2-1-2v-2c0-1.33-1-2.33-3-3s-3.67-2-5-4-1.33-5.67,0-11c1.33-6,3.33-14,6-24,4-9.33,8-16.67,12-22s9.33-10,16-14l10-6h1v-1h1l1-1c.67,0,1.33-4,2-12s3-17.33,7-28c4-11.33,10-23,18-35,7.33-11.33,14.67-23.33,22-36,6.67-12.67,12.33-21.67,17-27,4.67-5.33,10-10.67,16-16,6-4.67,9.33-7.33,10-8,0-.67.33-1,1-1s5-5,13-15c8-10.67,12.67-16.33,14-17s2-1.33,2-2,3.67-3,11-7,13.67-6.67,19-8,13-1.67,23-1c10.67.67,21.33,1.67,32,3s20,1.33,28,0c8-2,13-4.33,15-7,2-3.33,7.67-8.33,17-15,10-6.67,18.67-12,26-16,8-4,16.67-6,26-6s14.67.33,16,1c.67.67,1,1,1,1ZM1050.75,271.6v2l1,3c.67,2,4.67,5.33,12,10,8,4.67,13,8.67,15,12s4.67,9,8,17,8,28,14,60,9,48.67,9,50v2l-1,1-1,1h-1v1h-1v1h-2l-1-1-1-1s-3.67-2-11-6l-11-6-1-1-1-1h-1l-1-1h-2v44h-1l-1,59c0,40-1.33,70.67-4,92-2.67,20.67-5.33,38-8,52-2.67,13.33-6.33,28.33-11,45-5.33,16.67-9.33,25.67-12,27-2.67,0-8.33-1-17-3-8-2-14-3-18-3h-11v1h-1l3,17c2,12,4.33,20.33,7,25s4,7.67,4,9v3h-1c0,.67-.33,1-1,1,0,0-1.67,1-5,3s-12,4.33-26,7c-14,4-29.67,5.33-47,4-18-1.33-27.67-3-29-5l-3-4v-3c0-2,.33-3.33,1-4,0-.67-.33-1-1-1l-1-1,14-7c8.67-4.67,15.67-9,21-13,5.33-4.67,8.33-8,9-10,.67-1.33,1.33-2,2-2s1.33-.67,2-2,1.33-2,2-2v-1h1v-1l1-1,1-1v-1h1v-1l1-1v-1h1v-2c.67-.67,1.67-2,3-4l3-3v-3h-1v-2c0-.67-.67-1.67-2-3-.67-2-2.67-3-6-3l-4-2h-2v-2h-2v-7h1v-1h1v-2c0-.67.33-1.33,1-2,.67-1.33,1-10.67,1-28s-.33-40.33-1-67-.33-43,1-49c0-6,1.67-14.67,5-26l4-17v-2c.67-1.33,1.33-4.67,2-10l1-8v-3c0-2.67-.67-5-2-7s-3-9.67-5-23c-2-12.67-5-27.33-9-44l-4-25-1-1-1-1v-2l-1-1h-2v1h-1v1h-1v1h-1v3c0,2-.33,4.33-1,7l-1,4v4l-2,21c-1.33,14.67-2,22-2,22l-1,12c-.67,8.67-1,15.33-1,20v12c0,3.33-.67,6-2,8,0,1.33-1.67,3-5,5l-5,3h-7v-1h-1v-1h-1v-1h-1v-1l-1-2c-.67-.67-.33-10.67,1-30l2-28v-5c0-3.33.67-11,2-23l1-18v-4c.67-2,1.33-6.67,2-14l2-10s1-3.67,3-11l4-10h2l1,1h-1v1c0,.67.33,1,1,1s1-.33,1-1h1c0-.67.33-1,1-1v-1h1c0-.67.33-1,1-1h2l2-1h2v-2h-1l-1-1h-3l-1-1c-.67-.67-2-1-4-1-1.33-1.33-4-3.33-8-6-4.67-2.67-9-5.33-13-8-3.33-3.33-5.67-7.33-7-12l-2-8v-1l-1-3-1-2v-2c0-.67-.67-2-2-4s-5.33-4.67-12-8c-6-2.67-12.67-6.67-20-12-6.67-4.67-11.33-8-14-10-2.67-2.67-5.33-5.67-8-9s-6.67-9-12-17-10.67-19-16-33-8.67-25-10-33l-1-13h2v1l1,1v1l1,2,1,1,5,15c3.33,9.33,5.67,15.33,7,18s2.33,4.67,3,6l1,1v2l1,1,1,1v3h2v-3l-1-3-1-2v-2c0-2-.67-6.67-2-14-1.33-8-1.67-19.33-1-34,.67-15.33,1-31,1-47s-1.33-27-4-33c-2.67-5.33-4.67-8-6-8-.67,0-4.67-3-12-9s-14-10.67-20-14c-5.33-3.33-11-6.33-17-9-6-1.33-11-2-15-2-4.67,1.33-9.33,3-14,5s-8.67,4.67-12,8c-4,2.67-7.67,7-11,13s-5.33,13.33-6,22c-.67,9.33.33,16.67,3,22,1.33,4.67,4.67,8.67,10,12,5.33,4,10.33,9.33,15,16s10.33,10,17,10c6.67,1.33,12.67,3.33,18,6,4.67,2.67,9.33,4.33,14,5,4,.67,6.67.33,8-1,1.33,0,3.33-1.33,6-4,2-2.67,4-6,6-10,1.33-4,2.33-8.33,3-13l1-7-1-2-1-3v-2h2v4l1,2,1,2-1,11c-.67,8-2,14.33-4,19-2.67,4.67-6.33,8.33-11,11s-9.33,3.67-14,3c-4-.67-8.67-2.33-14-5s-11.33-3.67-18-3c-6.67,0-13-3-19-9-5.33-6.67-10.67-11.33-16-14-4.67-2.67-8.67-6-12-10-3.33-3.33-5.67-7.33-7-12s-2-11.33-2-20,1-16.67,3-24c2-6.67,5-12.67,9-18s8.33-10,13-14c4-4,8.67-7,14-9s9.33-3.67,12-5h13c6,1.33,13,4,21,8s15.67,9.33,23,16c8,6.67,13.33,11.33,16,14,2.67,3.33,5,6,7,8,1.33,2.67,6.33,4.67,15,6,8.67,2.67,16,3.33,22,2,5.33,0,12.67-.67,22-2s18-2,26-2c7.33,1.33,14.67,3.33,22,6s12.67,5.33,16,8c4,2.67,6,4.33,6,5s.33,1,1,1,1,.33,1,1,1.33,2.33,4,5c2.67,2,6.33,6.33,11,13,5.33,6.67,8.33,10,9,10s1.33.33,2,1c0,1.33.33,2,1,2s1.33.67,2,2c.67,1.33,1.33,2,2,2s1,.33,1,1,2,2.33,6,5c4,3.33,8,7.33,12,12,4,5.33,10.33,15,19,29s15.67,25.33,21,34c5.33,8.67,9.33,17,12,25,4,8,6.67,16,8,24,1.33,8.67,2.33,13.33,3,14ZM441.75,91.6v2l-1,1-1,1h-5l-1-1-1-1h-1v-7l2-4c1.33-3.33,3.33-5.67,6-7,3.33-2.67,6-4,8-4,2-1.33,5-1.67,9-1,4,0,6,.33,6,1s-1.67,1-5,1c-3.33.67-6.67,1.67-10,3-2.67,2-4.33,3.67-5,5s-1,3.33-1,6v5ZM770.75,101.6v2h-2v-3l-1-3v-1l-6-3c-4-1.33-7.33-2-10-2h-13v-1l-1-1v-1l1-3c.67-1.33,1.67-2.33,3-3,2-.67,4.67-1,8-1,2.67,0,6.33,1.67,11,5s7.67,5.67,9,7,2,2.67,2,4-.33,2.67-1,4ZM623.75,340.6l-2,1h-2v1c-.67.67-.67,1,0,1,1.33,0,2.33.33,3,1h1l6,2c4,.67,6,1.33,6,2l2,1h3v1l8,5c6,4,11,8.33,15,13s7.33,10.33,10,17c2.67,6,4.33,10,5,12s1,6,1,12v10l35-15c23.33-10,41.33-18,54-24s19.67-9.67,21-11c1.33-2,2-1.33,2,2-1.33,4-3,8.33-5,13-2.67,4.67-7,10.33-13,17-6,8-9.33,12.33-10,13,0,.67-1.33,2.33-4,5-2.67,2-8.33,7-17,15-8.67,7.33-13.33,11.33-14,12-.67,0-1,.33-1,1s-9.33,7.33-28,20c-18,12-30,19.67-36,23-5.33,3.33-8,5-8,5h-1v1h-1v3c0,2-1,4-3,6-2,2.67-5.33,4-10,4h-8c-.67,0-7,3.67-19,11l-19,11h-2v1h-1v3h4c2.67-.67,4,.67,4,4v6l-1-5v-5h-2l-1,1-1,1h-2v1c-.67,0-1,1.33-1,4v4l-1-2-1-2v-6h-2l-1,1h-1v1l-1,4v4h-2v-3c-.67-1.33-1-2.33-1-3v-1h-2l-1,1h-1v3c0,2-.67,2.67-2,2s-6.67,1.67-16,7l-14,8v1h-1l-1,1h-1v1h-1v1h-1c0,.67-1,1.33-3,2-1.33.67-2.33,1.67-3,3-.67,2-3,4-7,6l-6,2-5,4c-3.33,2.67-8.33,6.67-15,12s-15.33,12.67-26,22c-10.67,10-16.33,15-17,15v1h-1v1h-1v1h-2v1h-1v1h-2v-2l1-4c.67-2,1.67-5.33,3-10l2-8h1v-1h1v-3h1-4v1h-1v1h-1l-1,1-1,1-7,6c-4.67,4-7,6.33-7,7h-1v1h-1v1h-1v2h-1c0,.67-.33,1-1,1v1c0,.67-.33,1-1,1v1h-1v1l-1,1-1,1v1l-1,1v1h-1l-1-1h1v-3h1v-1h1v-2l1-1c.67-.67,1-1,1-1v-2l1-1,1-1v-2c0-2,.33-3.67,1-5l1-2v-1h-3l-1,1-1,1h-1v-5h-1v1h-1v1l-9,8c-6,5.33-9,8-9,8v1h-1v1h-1v1h-2v1l-1,1v1h-2v-1l1-1v-1h1v-1h1v-3h1v-1c.67,0,3.67-4,9-12s12.67-17.33,22-28l16-16v-1h1v-1h1v-1h1v-1h1v-1h-1l-2-1-2-1h-17c-2,1.33-4.67,2-8,2h-5v-1h-1v-1h-2v-2h-2v-1h-1v-1h-1v-3h4c2.67-.67,5-1,7-1s5-1,9-3c3.33-2,5.33-3.67,6-5,1.33-1.33,1-3.33-1-6s-3-5.67-3-9v-7h-2l-1,1c-.67.67-1.33,1-2,1-.67,1.33-2.33,2-5,2h-3v-1h-1v-1h-2v-1h-1v-1h-2v-2h2v-1h1v-1h1l8-4c5.33-2.67,8.33-4.33,9-5,1.33-.67,2-1,2-1h1v1h1v1h1l1,1,1,1h2v1h1v5c0,2-.67,4-2,6s-1.67,4-1,6,1.67,4.67,3,8c2.67,4,4,7,4,9,.67,2,1.33,3.33,2,4,1.33.67,2.67,1,4,1h2l2,1,1,1h4v-1h1v-1h1v-1h1v-20c0-11.33,1-19.67,3-25l3-7,1-1,1-1v-1h-4l-2,1c-.67.67-2,.67-4,0l-4-1v-1h-1v-1h-4v-1h-1v-1h2l5-2c3.33-1.33,5.67-2.33,7-3h1v-1l-1-1v-1c0-.67-1.33-2.67-4-6l-2-4-1-1v-1h-2v-1h-1v-1h10l4,2c2.67,1.33,4.33,2.33,5,3s1,2.33,1,5v3h2l1-1h3v-1h1v-1h1v-2c0-1.33.67-5.33,2-12l2-10h4l1,1,1,1h1l1,1,2,1h1v1h1v5c0,2.67-.67,5.33-2,8-1.33,2-2.33,3-3,3v1h-1v1h-1v1h3c2,0,3.67.33,5,1h2v3l-1,2v1h-1v1h-4c-2.67,0-5.67.67-9,2h-4l-2,1-1,1h-2v1h1v1h1v1h1v2h1v1h1v2c0,.67,1.33,1.33,4,2,3.33,0,6.33,1,9,3,2,1.33,3.67,3,5,5,0,2.67.33,4.67,1,6v1h1l1-1h1l13-10c8.67-6.67,13-10,13-10v-1h1v-1h2v-2h2l1-1v-4c0-2.67-.33-4.33-1-5h-1l-1-1v-1l7,1c4,.67,5.67,1,5,1-.67.67-1.33,1.33-2,2v1h1v-1h2l1-1,1-1h1l1-1h1c0-.67.33-1,1-1h1l1-1,1-1h1l1-1,1-1h1v-1h1v-1l3-2c2-1.33,3.33-2,4-2h1v-1h1v-1h2v-1h1v-1h-1l-1-1-1-1h-1l-1-1c-.67-.67-3-2.67-7-6l-7-5v-1h-1v-1c-.67,0-1.33-.67-2-2l-1-2h-1v-1c-.67-.67-1.67-2-3-4l-2-4h-1v-2l-1-1c-.67-.67-1.67-2.67-3-6s-2-8.67-2-16c-1.33-7.33-1-14.33,1-21l3-10v-2h1v-2l-1-2v1h-1l-1,1-2,1h-1v1h-1v1h-1c-.67,0-1.67.67-3,2-2,1.33-9.33,6-22,14l-18,12h-1v1h-1v1h-2v1l-1,1v1h1v1h2l2,1,1,1,7,2c4.67,1.33,7.33,2.33,8,3l2,1h2l2,1h2v2h-1v1h-4v1h-1v1h-1v1h-1v1h-2c-1.33,0-2.33.33-3,1s-3,1-7,1c-3.33,0-6.67-1.67-10-5l-4-5c-.67,0-1-.33-1-1h-1v-1h-1v-1h-1l-2,1h-1l-1,1h-1v3l-1,7c0,4.67-.33,7-1,7v1h-1v1h-6c-3.33,0-6-.33-8-1l-3-2h-1c-1.33.67-10,7.33-26,20-16.67,13.33-25,20.33-25,21s-2,2.33-6,5-7.67,6-11,10l-6,6v1h-1v1h-1v1h-1v1h-1v1h-1v1h-1v-4h1v-1h1v-2l1-1c.67-.67,1-1.67,1-3l2-1v-1l1-1,1-1v-4,1h-1v1h-1v1h-1v1h-1v1h-1v1h-1l-4,5c-2.67,3.33-4.33,5.33-5,6l-1,1v1h-1v1h-1v1l-1,1-1,1v1-5l1-1,1-1v-2l1-1c.67-.67,1-2,1-4,1.33-1.33,4.67-7,10-17l8-15h1v-1h1v-2h1v-1h1v-4l-1,1-1,1h-1l-1,1-1,1h-2v1c-.67,0-3.33,1.33-8,4l-7,5h-2v1h-1v1h-3v1-3h1v-1h1v-1l1-1,1-1v-1l4-3c2.67-2,4-3.33,4-4s3.33-4.33,10-11c7.33-6,17.67-14.67,31-26,14-11.33,21-17.33,21-18s.33-1,1-1,1.33-.33,2-1h1l7-6c4.67-3.33,7.33-5.33,8-6l1-1h1v-1h1v-1h1l1-1h1v-1l1-1v-1h-2v1h-1v1h-1v1h-1v1h-1l-1,1c-.67.67-2,1.33-4,2s-5.67,1.67-11,3h-7l-1,1-2,1h-5v-2h2l1-1,1-1h1l6-5c4-2.67,6.33-4.33,7-5h1v-1h1v-1h1v-1h1v-1h1v-1h1v-1h1v-2h-2v1h-1v1h-2v1h-1v1h-3c-1.33,0-3-.33-5-1l-3-1-1-1-1-1h-2l-1-1-1-1h-2v-1h1v-1h1l1-1,2-1,12-4c8-2.67,12.67-4,14-4h1l1-1,2-1v-3h-1v-1h-1v-1l-1-1-1-1v-1h-1v-1h-6c-3.33-.67-6-1.67-8-3l-3-2h-1v-1h-1v-1h-1l-1-1h-1v-2h1l1-1,17-4c11.33-4,20-5.67,26-5,6.67.67,11,1.67,13,3,2,2,3.33,3,4,3v1h1v1l1,1,1,1v3c0,2-1.67,4-5,6l-5,3v1h-2l-1,1h-1v2h4l4,1h14v1l1,1h1l1-1,1-1,20-10c13.33-6.67,28.67-13,46-19,18-6,36.67-11.67,56-17,20-5.33,37.33-9.67,52-13,15.33-3.33,27.33-5.67,36-7s16-2,22-2c5.33,0-2.67,3.67-24,11-20.67,7.33-40,14.33-58,21-18,8-29,12.67-33,14s-6.33,2.33-7,3ZM441.75,507.6h-4c-1.33,0-2.67-1-4-3l-2-2-2-4c-1.33-2.67-2-4.67-2-6s2.67-.33,8,3c6,4,9,6.67,9,8-.67,2-1,3-1,3,0,.67-.67,1-2,1ZM674.75,535.6l-5,2v8h-1v-1h-1v-7c0-4.67,1-7.33,3-8h6c2.67,0,4,.67,4,2-.67,2-2.67,3.33-6,4ZM682.75,541.6c.67-3.33,1.33-5.33,2-6h4c2,0,3,1.33,3,4s-.67,4.33-2,5c-.67.67-2,1.33-4,2-2,0-3-1.67-3-5ZM563.75,566.6l2-1,3,1c2,0,2.67,1,2,3s-2.33,3.67-5,5c-3.33,2-5,3-5,3h-1v3l-1-5-1-5v-1l2-1c.67-.67,1.33-1,2-1s1.33-.33,2-1ZM612.75,584.6l-1-1v-4c.67-2.67,1.33-3.67,2-3,0,.67,1,.33,3-1,1.33-1.33,2.67-2,4-2,2,.67,2.67,2.33,2,5,0,3.33-1.67,5-5,5-2.67,1.33-4.33,1.67-5,1ZM857.75,772.6l-1,1h-2v1h-1v1h-1v1h-1v1h-1v1h-1v2h12c7.33-.67,13-1,17-1h6v2h-7c-4,0-10,1-18,3l-12,2v-1h-4v-1h-1v-1h-1v-4l1-2,1-2,3-4c2-2.67,6-5.33,12-8,6-1.33,13-3.33,21-6,8-1.33,14.33-3.67,19-7,4.67-2.67,10.67-6.67,18-12s11-8.33,11-9,.33-1,1-1,1-.33,1-1,.33-1,1-1,1.67-1,3-3c1.33-1.33,2.67-2.33,4-3,.67,0,.67,1.67,0,5-1.33,2.67-3.33,6-6,10s-4.33,6-5,6-1,.33-1,1-2.33,2.67-7,6-7,5.33-7,6-2.67,2.33-8,5-14,5.33-26,8c-12.67,2.67-19.33,4.33-20,5ZM359.75,775.6v2l1,2,1,1v3h-1v1h-1v1h-11c-6,0-12-.33-18-1l-9-1-2-1-1-1h-4,39v-1h-1v-1h-1v-2l-1-1-1-1v-2h-1l-1-1c-.67-.67-5.67-1.67-15-3-9.33-2.67-17-5-23-7s-14.33-7.67-25-17l-15-13h-1v-1l-2-2c-2-2-2.67-3.33-2-4l3,3c2.67,2,10,7,22,15s24.67,13.33,38,16,21.33,4.33,24,5c2.67,1.33,4.67,3.33,6,6s2,4.33,2,5Z"/>
    <path class="cls-14" d="M577.75,418.6v2h-1v1h3v1c.67.67.67,1,0,1s-1.33.67-2,2c-1.33,1.33-2,2.33-2,3h1c0,.67,1,1,3,1h4c1.33,0,2,.67,2,2,0,.67.33,1,1,1v1c-.67.67-1,1-1,1,0,.67-2,1.67-6,3l-6,2v1h-1v1h-1l-2-1c-1.33-.67-2-2-2-4,.67-2,.67-3,0-3h-2v1l-1,1v1h-2v-1l1-1v-3l4-3c2.67-2,4.67-4,6-6,2-2,3.33-3.33,4-4Z"/>
    <path class="cls-109" d="M111.75,353.6v-2l14,2c10,1.33,17.67,2,23,2h10l-1,6c-1.33,4-2,12.67-2,26s-.33,20-1,22c-.67,2.67-1,5.33-1,8s1.33,5.33,4,8c1.33,2,2.67,4.67,4,8,1.33,2.67,3.67,4.67,7,6s6.67,1.33,10,0c3.33,0,6-1,8-3,2-1.33,5.67-8.67,11-22s8-20.33,8-21v-2l1-1,1-1v-1h1v-1h1v1h1v1h1l4,4c2.67,2.67,5,4.33,7,5s3.67.67,5,0h1v1l-1,2v2h-1c-.67.67-1,1.33-1,2v1h-1v1h-1v2h-1,3v-2h1v-1h1v-2h1v-1c.67,0,1.33-.67,2-2l1-3h1v-1h1v-2h1v-1h1v-1h1l1,1v1h-1v1h-1v2l-1,1-1,1v1l-14,21c-9.33,14-14,21.33-14,22l-1,1-1,1v3h1v1h1v1h2l1,1,1,1h8c3.33,0,6-1.33,8-4,2-1.33,3-2.33,3-3h1v-1h2c1.33,0,2-.33,2-1s.33-1,1-1,1.67-1.67,3-5l3-4c.67,0,1-.33,1-1v-2c.67,0,1-.33,1-1v-1c.67,0,1.67-1.33,3-4l2-5v-1c0-.67.67-2,2-4l2-3v-2l1-1,1-1v-3h1l1-1v3l-1,1-1,1v3l-6,24c-4,16-7.67,38.67-11,68-3.33,29.33-4.67,50.33-4,63s1,40,1,82c.67,41.33,0,62.67-2,64-1.33,1.33-4.67,1.67-10,1-4.67-.67-12-1-22-1-9.33,0-16.33.67-21,2s-7.67,2-9,2h-2s-2.67-8.33-8-25-9.33-35-12-55c-4-20-8-57-12-111s-6.67-89-8-105-4.33-30.33-9-43l-6-19v-2l-1-1v-3ZM220.75,413.6h2-1v2l-1,1-1,1v1h-1v1h-2v-1h1v-2h1v-1h1v-2h1Z"/>
    <path class="cls-95" d="M951.75,723.6v-1h1c.67,0,1,.33,1,1s2.67,2,8,4c6,1.33,11.33,2,16,2,5.33,0,8.67-.33,10-1h1l-2,5c-.67,3.33-1,8-1,14,0,6.67.67,13.33,2,20,2.67,6,4,9.33,4,10v2h-1c-.67,0-5.67,1.33-15,4-10,2.67-24.33,4.33-43,5l-28,1h-2v-1h-1v-1l-1-2-1-1v-1h1v-1h1v-1h2l10-7c6.67-4,10-6.33,10-7s.67-1.33,2-2,2-1.33,2-2,.33-1,1-1,3-3,7-9c4-5.33,6-8.33,6-9l1-1,1-1v-1l1-2v-1c.67,0,1-.33,1-1h1v-2c.67,0,1.67-1,3-3s2.33-3.67,3-5v-2c-.67-.67-1-1.33-1-2Z"/>
    <path class="cls-53" d="M457.75,567.6l15,8c10,5.33,17.33,8,22,8s9.67-.67,15-2c6-2.67,9.33-4,10-4h2l-5,4c-3.33,2.67-8.33,6.67-15,12s-15.33,12.67-26,22c-10.67,10-16.33,15-17,15v1h-1v1h-1v1h-2v1h-1v1h-2v-2l1-4c.67-2,1.67-5.33,3-10l2-8h1v-1h1v-3h1-4v1h-1v1h-1l-1,1-1,1-7,6c-4.67,4-7,6.33-7,7h-1v1h-1v1h-1v1h-1v1h-1v1h-2v-2l1-1,1-1v-2c0-2,.33-3.67,1-5l1-2v-1h-3l-1,1-1,1h-1v-5h-1v1h-1v1l-9,8c-6,5.33-9,8-9,8v1h-1v1h-1v1h-2v1l-1,1v1h-2v-1l1-1v-1h1v-1h1v-3h1v-1c.67,0,3.67-4,9-12s12.67-17.33,22-28l16-16v-1h1v-1h1v-1h1v-1h1v-1Z"/>
    <path class="cls-48" d="M649.75,413.6h8l4,2c2.67,0,4,.33,4,1,0,0,.33.33,1,1v2c0,.67-.33,1.33-1,2-1.33,0-2,1-2,3s-.33,3.67-1,5v1l-1,1c0,.67-.33,1.33-1,2v2c-.67.67-.67,1.33,0,2v1h-2c-1.33,0-2,.33-2,1l-1,1v1h-7l-1-1-2-1h-1c-.67-.67-1-3-1-7,0-4.67-.33-8-1-10l-1-3v-2c.67-1.33,2-2.33,4-3s3.33-1,4-1Z"/>
    <path class="cls-15" d="M885.75,307.6v-4h1l1,6c0,3.33.67,5.33,2,6,1.33,1.33,3.33,3.67,6,7s5.67,6.67,9,10c3.33,2.67,5.67,4.33,7,5,.67,1.33,3,2.67,7,4s6.33,2,7,2h2l1,1,1,1h3l1,1v3h-3v-1h-1v-1h-3l-1,1h-2v-2h-1l-1-1h-3l-1-1c-.67-.67-2-1-4-1-1.33-1.33-4-3.33-8-6-4.67-2.67-9-5.33-13-8-3.33-3.33-5.67-7.33-7-12l-2-8h1v1h1v-3Z"/>
    <path class="cls-93" d="M653.75,494.6v5c0,2-1,4-3,6-2,2.67-5.33,4-10,4h-7v-1h-1c0-.67-.67-2-2-4l-3-3v-7l1-1c.67-.67,1-1.33,1-2v-2h1v-1h1v-1h2c2-1.33,5-1.67,9-1s6.67,1.67,8,3c2,2,3,3.67,3,5ZM636.75,505.6l-1-2,1-6c.67-4.67,1-7.33,1-8h4c2,0,3.33.67,4,2v6c0,4-.33,6.67-1,8-.67.67-2,1-4,1s-3.33-.33-4-1Z"/>
    <path class="cls-25" d="M971.75,467.6l-4-12,3,4c2,2,3.67,5,5,9s2,6.33,2,7v1l-1,1c0,.67-.33,1-1,1s-2-3.67-4-11Z"/>
    <path class="cls-114" d="M635.75,348.6l2,1h3v2h-1s-.33.67-1,2c0,1.33-.33,2-1,2l-2,1h-1c-.67.67-1.33,1.67-2,3l-1,2-1,4c-.67,3.33-1,5.33-1,6v4h1v2h-8c-1.33,0-2.33.33-3,1,0,.67-.33.33-1-1-.67-.67-1.33-1-2-1-.67-.67-1-1-1-1-.67-.67-1.33-1-2-1s-1-.33-1-1v-1l3,1c2.67.67,4.67,1,6,1l2-1v-10h-4l-1,2c-.67,1.33-1,2-1,2h-4v-4h1v-1h1v-1l1-4c.67-2.67,1-4,1-4v4l2-2c1.33-.67,2.33-1.67,3-3,.67-.67,1.67-1.33,3-2s2.67-.67,4,0,2.67,1,4,1,2-.67,2-2,0-1.67,0-1Z"/>
    <path class="cls-16" d="M638.75,404.6v1h-1v6h2l1-1,1-1h4c3.33,0,5.33-.33,6-1v1c.67,0,1.33.33,2,1v1c0,.67-.33,1.33-1,2h-3c-.67,0-2,.33-4,1s-3.33,1.67-4,3v2s-.33,1-1,3c0,2-.33,3-1,3s-1.67.33-3,1l-2,1c-.67-.67-1.33-1-2-1-.67.67-1.33,1.33-2,2-.67,1.33-1,1.33-1,0l-1-2c.67,0,1-.33,1-1v-2s.33-.33,1-1l1-1v-2h-4l-2,1v1h-2v-1l1-1v-2h2v-1c.67,0,1.33-1,2-3s.67-3,0-3c-.67-.67-.67-1,0-1h2v-1h1v-1c0-1.33.67-2.67,2-4v-2l1-1c0-.67.33-1,1-1,1.33,0,2,.67,2,2,0,2,.33,3,1,3Z"/>
    <path class="cls-8" d="M623.75,344.6l6,2c4,.67,6,1.33,6,2v1c0,1.33-.67,2-2,2s-2.67-.33-4-1-2.67-.67-4,0-2.33,1.33-3,2c-.67,1.33-1.67,2.33-3,3l-2,2v-8h-4v-3h-1v-1h11v-1Z"/>
    <path class="cls-47" d="M659.75,451.6v4h-1s-.67,1-2,3l-1,2h-1v1h-1v1l-1,1v2h-2c-.67,0-1,.33-1,1s-.67,1-2,1c-.67,0-1.33.33-2,1v1c-.67.67-2.33,1.33-5,2-2,1.33-5,2.67-9,4-3.33,1.33-9,2-17,2h-16v-1h1v-2h1l1-1h1v-1h1v-1h1s.33-.67,1-2l1-2h1v-1s.33-.33,1-1l3-1c2.67-.67,4-1,4-1v-1l2-1c1.33,0,2-.67,2-2,1.33-2,2-3.33,2-4v-1h1v-1h1v1l2,1c1.33,1.33,2,2,2,2v1l3,1c2,1.33,5.67,1.67,11,1s8-1,8-1h1v-1h1c0-.67.67-1.67,2-3l1-3,3-1c1.33-.67,2-.67,2,0Z"/>
    <path class="cls-37" d="M668.75,433.6v-1c.67,0,1,.33,1,1v1h-3v1l1,1v2l1,1,1,1v-1h1v-1h1v-1h1v-1h1v-2h1c.67,0-.33,2.67-3,8s-6.67,10.33-12,15l-7,7v1h-2v-2h2v-1h1v-1h1v-1h1l1-2c1.33-2,2-3,2-3h1v-4c0-.67-.67-.67-2,0l-3,1v-1h1v-2h1l1-1c1.33,0,2-.33,2-1v-1h-1v-1c.67-.67,1-2,1-4l1-3v-5c.67-.67,1-1.33,1-2l1-1h2c1.33,0,2.33.33,3,1,0,1.33.33,2,1,2Z"/>
    <path class="cls-13" d="M950.75,509.6l1-1,2,21c1.33,14,2,28,2,42-1.33,13.33-2,22.67-2,28-1.33,6-2,11-2,15v6l-1,1h-1v-5c0-3.33-.33-5-1-5v-2c-.67-.67-1-14.67-1-42s.33-42.33,1-47l1-7v-1c0-.67.33-1.67,1-3Z"/>
    <path class="cls-77" d="M972.75,484.6h1v1h-1c-.67,0-3.67.33-9,1l-8,1v5l-1-1v-4c0-2,3-3,9-3,5.33-.67,8.33-.67,9,0Z"/>
    <path class="cls-104" d="M542.75,486.6v-1l7,1c4,.67,5.67,1,5,1-.67.67-1.33,1.33-2,2v9l-1,8v2h-1v1h-1l-2,1-1,1h-4v-1h-1v-5c0-.67.67-1,2-1,.67-.67,1.33-2,2-4v-8c0-2.67-.33-4.33-1-5h-1l-1-1Z"/>
    <path class="cls-91" d="M602.75,428.6v-2h4v1h3c2,0,3.33.33,4,1h2v8-1h-2l-1-1-1-1h-10c0-.67-.33-1-1-1,0-.67.33-1,1-1,0-.67.33-1.67,1-3Z"/>
    <path class="cls-59" d="M913.75,463.6v-1s.33,4.33,1,13l1,14v4c0,3.33-.67,6-2,8,0,1.33-1.67,3-5,5l-5,3h-3c-.67-.67-1-1.67-1-3l-1-2h2l2-1h4v-1h1v-1h1v-1h1v-6c0-4,.33-10,1-18l1-12,1-1h1Z"/>
    <path class="cls-40" d="M915.75,435.6v-2l1,8c.67,5.33,1,8,1,8l-1,12c-.67,8.67-1,15.33-1,20v8l-1-14c-.67-8.67-1-13-1-13v1h-1l-1,1v-3c0-2,.33-6.33,1-13l1-10h1c0-.67.33-1.67,1-3Z"/>
    <path class="cls-67" d="M641.75,444.6l-1-1,5,2c2.67,1.33,5.33,2,8,2,2,0,3.33-.33,4-1h2v1c0,.67-.67,1-2,1l-1,1h-1v2h-1v1l-1,3c-1.33,1.33-2,2.33-2,3h-1v-1c-.67-.67-1.33-1.33-2-2l-1-1v-2c0-1.33-.67-2.67-2-4l-3-2h-1v-2Z"/>
    <path class="cls-88" d="M629.75,424.6v3c0,1.33.33,1.67,1,1s1.33-1.33,2-2c.67,0,1.33.33,2,1v1c0,.67.33,1,1,1s1,.33,1,1-.67,1-2,1c-1.33.67-2,1.33-2,2v1c-.67,0-1,.33-1,1v2l-1,1-1,1h-4v-1l-1-1-1-2v-2c0-2-.33-3.33-1-4l3-2c2-1.33,3.33-2.33,4-3Z"/>
    <path class="cls-103" d="M493.75,471.6l2-10h4l1,1,1,1h1l1,1,2,1h1v1h1v5c0,2.67-.67,5.33-2,8-1.33,2-2.33,3-3,3v1h-1v1h-1v1h3c2,0,3.67.33,5,1h2v3l-1,2v1h-1v1h-4c-2.67,0-5.67.67-9,2h-4l-2,1-1,1h-2v1h1v1h1v1h1v2h1v1h1v2c0,.67,1.33,1.33,4,2,3.33,0,6.33,1,9,3,2,1.33,3.67,3,5,5,0,2.67.33,4.67,1,6v1l-1,17c-1.33,12-2,18.33-2,19v1h-1l-1,1-1,1h-5c-1.33,0-2-.67-2-2-.67-1.33-2.67-1.67-6-1l-6,1-2,1-1,1h-1l-2,1h-1c0-.67-.33-1-1-1h-2v-1h-1v-1c-.67,0-1.33-.67-2-2l-1-1v-20c0-11.33,1-19.67,3-25l3-7,1-1,1-1v-1h-4l-2,1c-.67.67-2,.67-4,0l-4-1v-1h-1v-1h-4v-1h-1v-1h2l5-2c3.33-1.33,5.67-2.33,7-3h1v-1l-1-1v-1c0-.67-1.33-2.67-4-6l-2-4-1-1v-1h-2v-1h-1v-1h10l4,2c2.67,1.33,4.33,2.33,5,3s1,2.33,1,5v3h2l1-1h3v-1h1v-1h1v-2c0-1.33.67-5.33,2-12ZM481.75,521.6h-2v-1h-1v-1h-1v-3h2l2-1,5-2c2.67-1.33,5-1.67,7-1,2,0,2.67,3.67,2,11,0,7.33-1.67,11-5,11-3.33.67-5.33,1-6,1s-.67-1,0-3,2.33-3.67,5-5,4-2.67,4-4c0-2-1.67-3-5-3-2.67.67-5,1-7,1ZM486.75,549.6h-3l1-3c0-2,1.67-4,5-6,4-2,6-1,6,3-.67,4-2,6-4,6h-5Z"/>
    <path class="cls-99" d="M770.75,101.6v2h-2v-3l-1-3v-1l-6-3c-4-1.33-7.33-2-10-2h-13v-1l-1-1v-1l1-3c.67-1.33,1.67-2.33,3-3,2-.67,4.67-1,8-1,2.67,0,6.33,1.67,11,5s7.67,5.67,9,7,2,2.67,2,4-.33,2.67-1,4Z"/>
    <path class="cls-46" d="M599.75,378.6v1c-.67,1.33-1,2-1,2h-1v-1h-1v1h-2v1h-1v1h-1v1h1l2,2,3,3h-2c-1.33,0-2.67-.67-4-2l-2-1v-1c0-.67-.67-1-2-1l-2-1h-1c-1.33,0-2-.33-2-1v-1h-1v-1c.67,0,1-.33,1-1h1l4-1c2.67-.67,5-.67,7,0s3.33.67,4,0Z"/>
    <path class="cls-60" d="M589.75,412.6h1v1c-.67,0-2.67,1-6,3-4,2-5.67,3.33-5,4v1h-3v-1h1v-3c0-1.33.33-2.67,1-4l1-2h1v-1l1-1s.33.33,1,1c0,.67,1,1.33,3,2s3.33.67,4,0Z"/>
    <path class="cls-116" d="M441.75,91.6v2l-1,1-1,1h-5l-1-1-1-1h-1v-7l2-4c1.33-3.33,3.33-5.67,6-7,3.33-2.67,6-4,8-4,2-1.33,5-1.67,9-1,4,0,6,.33,6,1s-1.67,1-5,1c-3.33.67-6.67,1.67-10,3-2.67,2-4.33,3.67-5,5s-1,3.33-1,6v5Z"/>
    <path class="cls-90" d="M586.75,433.6v-1l4,1c2.67,1.33,4.33,2,5,2h2c.67,0,1,.33,1,1v1h-3c-1.33,0-2.33,1-3,3-.67,1.33-1.33,4-2,8v6h-1l-1-1h-1v-1l-1-1c-.67-.67-1.33-1.33-2-2-.67,0-1-.33-1-1s-1.33-1.33-4-2c-3.33-.67-5.33-1.33-6-2,0-.67-.67-.67-2,0l-2,1v-1c0-.67.33-1,1-1v-1h1v-1h1v-1h1v-1l6-2c4-1.33,6-2.33,6-3,0,0,.33-.33,1-1Z"/>
    <path class="cls-38" d="M674.75,535.6l-5,2v8h-1v-1h-1v-7c0-4.67,1-7.33,3-8h6c2.67,0,4,.67,4,2-.67,2-2.67,3.33-6,4Z"/>
    <path class="cls-61" d="M630.75,419.6h1v2l-1,1c-.67.67-1,1-1,1v1s-.33.33-1,1v1h-1c-.67.67-1.67,1.33-3,2l-2,1v-1c-.67-.67-1-1.67-1-3v-2h1c.67-.67,1-1.33,1-2h2v-1l2-1h3Z"/>
    <path class="cls-101" d="M287.75,403.6s-1.67-3.67-5-11l-5-11v-2c0-1.33-.33-2.33-1-3s-.33-.33,1,1c1.33.67,3.33,4.33,6,11s4,10.67,4,12v3Z"/>
    <path class="cls-5" d="M594.75,437.6l3-1v1h2v9c-.67.67-1,1-1,1l-1,4c0,3.33.33,6,1,8,.67,1.33,1.33,2.33,2,3s.67,2.33,0,5c0,2.67.33,4,1,4h2v1c0,.67-.33,1-1,1h-1l-1,1h-1v2h-1v1h-1c-.67,0-3.33-1-8-3l-8-3h-1l-1-1-1-1h-1l-1-1c-.67-.67-3-2.67-7-6l-7-5v-1h-1v-2h1v-1h1v-2l1-1,1-1v-1l1-1,1-1v-1h3v-1c.67,0,1-.33,1-1h1c.67,0,1,.33,1,1,.67.67,2.67,1.33,6,2,2.67.67,4,1.33,4,2s.33,1,1,1c.67.67,1.33,1.33,2,2l1,1v1h1l1,1h1v-6c.67-4,1-6.33,1-7,0-1.33,1-2.67,3-4Z"/>
    <path class="cls-70" d="M1050.75,277.6v-4l1,3c.67,2,4.67,5.33,12,10,8,4.67,13,8.67,15,12s4.67,9,8,17,8,28,14,60,9,48.67,9,50v2l-1,1-1,1h-1v1h-1v1h-2l-1-1-1-1s-3.67-2-11-6l-11-6-1-1-1-1h-1l-1-1h-2v44h-1v-5l-1-4v1h-1v-1c.67-1.33,1-8,1-20,0-11.33-1.33-17.67-4-19l-2-2h-1v-1h-2l-1-1-1-1h-2v-2h2l1,1,1,1h2l1,1,1,1,14,6c9.33,4,14.33,6.33,15,7l1,1h2l1,1,1,1h3v-2l-1-2-1-2v-2c0-2-4-18.67-12-50-6.67-31.33-11.67-50-15-56s-7.67-11.33-13-16c-5.33-5.33-9-8.33-11-9l-2-1h-1v-2h1l1-1c.67,0,1-1,1-3Z"/>
    <path class="cls-96" d="M607.75,505.6h-4v-8c0-6,1.33-8.67,4-8,2.67,0,4.67,1,6,3s1.33,4.33,0,7c0,3.33-.33,5.33-1,6h-5Z"/>
    <path class="cls-3" d="M630.75,377.6v-1h1c1.33,0,2,.67,2,2-.67.67-1.33,1.33-2,2-.67,0-1,.33-1,1v1l4-1c3.33,0,5,1,5,3,1.33,2,1.67,5,1,9s-1,6.67-1,8c0,.67-.33,1.33-1,2v1c-.67,0-1-1-1-3,0-1.33-.67-2-2-2-.67,0-1,.33-1,1l-1,1v2c-1.33,1.33-2,2.67-2,4v1h-1v1h-1v-2h-1c-.67,0-1-1-1-3,0-1.33-1.33-1.67-4-1h-8v-4h1s.33-.67,1-2v-2l-1-1v-1c.67-.67,1-1,1-1,0,0,.67-.67,2-2,1.33-.67,2-2.33,2-5l1-3c0-.67.33-1,1-1,0-.67.33-1.33,1-2v-2h6Z"/>
    <path class="cls-28" d="M399.75,169.6v9h1v1h1v-1h1v1c-.67.67-1.67,3-3,7-2,4.67-2.67,4.33-2-1v-7l1-5c.67-2.67,1-4,1-4Z"/>
    <path class="cls-29" d="M660.75,434.6v4l-1,3c0,2-.33,3.33-1,4v1h-1c-.67.67-2,1-4,1-2.67,0-5.33-.33-8-1l-3-1c-.67-.67-1-1-1-1v-1h-1v-1c0-.67.33-1,1-1s.67-.33,0-1v-1h4l2,1,1,1h7v-1l1-1c0-.67.33-1,1-1s1.33-.67,2-2c0-1.33.33-2,1-2Z"/>
    <path class="cls-92" d="M634.75,356.6h1c0,.67.33,1,1,1h1v1l1,3v4h-2v-1c0-.67-1-1-3-1-1.33,0-2-.33-2-1v-1l1-2c.67-1.33,1.33-2.33,2-3Z"/>
    <path class="cls-64" d="M946.75,649.6l2-38c.67,0,1,1.67,1,5v5h1l1-1v39c0,26-.33,40.67-1,44s-1,6-1,8v2h-2l-5-1h-5v-1h-2v-3l1-1c.67-.67,1-1.33,1-2,0,0,1.33-2.67,4-8,1.33-6,3-22,5-48Z"/>
    <path class="cls-17" d="M253.75,597.6h-1l-2-14c-.67-9.33-1-19.67-1-31,1.33-11.33,2-17.33,2-18s.67,2.33,2,9c1.33,7.33,1.67,18,1,32,0,14.67-.33,22-1,22Z"/>
    <path class="cls-43" d="M937.75,293.6l-3-2,3,1c2,.67,3.33,1,4,1h1v1l7,3c4.67,1.33,7.33,2.33,8,3l1,1h2l1,1h2v-4l1,3c.67,2.67,1.33,4.33,2,5v1h-1c-.67,0-1.33-.33-2-1,0-.67-3.33-2.33-10-5l-11-6h-1c-.67,0-2-.67-4-2Z"/>
    <path class="cls-73" d="M257.75,391.6l-1,3c-.67,2-1.33,4.33-2,7-.67,2-1,3-1,3v1h1v1l-1,1v1l-1,1-1,1v2l-2,3c-1.33,2-2,3.33-2,4v1l-1-2c-.67-.67-1-1-1-1-.67.67-1.33,1-2,1h-1v-1c.67-.67,2.67-4,6-10l5-8v-2h1v-2h1v-2h1c.67-.67,1-1.33,1-2ZM251.75,406.6h1c0,.67-.33,1-1,1v-1Z"/>
    <path class="cls-85" d="M603.75,373.6h1l1,2v4c0,1.33.33,2,1,2s1,1,1,3,.33,3,1,3,1,.33,1,1,1.33,1,4,1,4,.67,4,2v2c-.67,0-1,.33-1,1h-1c-.67.67-2.67,1-6,1-2.67,0-4.67-.33-6-1l-2-2v-1c0-.67-.67-1.33-2-2h-1s-.33-.33-1-1h-2v-1h-1c-.67-.67-1-1-1-1v-2h-1v-1h1v-1h1v-1h2v-1h1v1h1s.33-.67,1-2v-1l2-2c.67-2,1.33-3,2-3Z"/>
    <path class="cls-87" d="M486.75,549.6h-3l1-3c0-2,1.67-4,5-6,4-2,6-1,6,3-.67,4-2,6-4,6h-5Z"/>
    <path class="cls-35" d="M612.75,584.6l-1-1v-4c.67-2.67,1.33-3.67,2-3,0,.67,1,.33,3-1,1.33-1.33,2.67-2,4-2,2,.67,2.67,2.33,2,5,0,3.33-1.67,5-5,5-2.67,1.33-4.33,1.67-5,1Z"/>
    <path class="cls-83" d="M575.75,398.6h2v1h3l1,1,1,1h-3v1h-1c-.67.67-2,1.33-4,2l-3,1-2,1-1,1h-3v-1h-1v-1h1v-1l3-2c1.33-.67,2-1.33,2-2h1l1-1c.67,0,1.67-.33,3-1Z"/>
    <path class="cls-22" d="M1019.75,300.6l1-1h2l1,24c0,15.33,1.33,25.67,4,31,1.33,5.33,3,11.33,5,18s3,15,3,25,.33,17,1,21,.33,7.33-1,10-2.33,4.33-3,5c-.67,1.33-1,2.33-1,3v1c-.67,0-1,.33-1,1h-1c0,.67-1.33,1-4,1l-3,2-1-1-2-1h-1s-.33-.33-1-1-2.33-4-5-10c-2-6-5.67-15-11-27l-8-18h-1v-1h-1v-1h-5l-1,1h-1l-2,7c-2,4.67-3,7-3,7v1h-1v1h-1v1h-2v1h-1v-1h-1v1h-2v-1l-1-1-1-1v-10c0-6,.67-10.67,2-14,1.33-4,4.33-10.33,9-19l7-13h1v-1h1v-2l1-1,1-1,2-12c2.67-8,6.67-13.67,12-17l10-5,1-1h2l1-1Z"/>
    <path class="cls-75" d="M561.75,485.6h12v2h-1c-.67.67-1,3.33-1,8v10h9v-1h1v-13c0-2-.33-3-1-3l-1-1-1-1v-1h11v2h-1l-1,1h-1l-1,9c-1.33,6-2,9.33-2,10s-.33,1-1,1v1h-2l-1,1-2,1h-6l-2-1-1-1h-1v-1s-.33-.33-1-1c-.67,0-1.33-3.33-2-10l-1-9h-1v-1h-1c-.67,0-1-.33-1-1,.67,0,1-.33,1-1Z"/>
    <path class="cls-32" d="M839.75,250.6v-1l34,15c23.33,10,36.33,15.67,39,17s4.33,2,5,2h1l1,1,1,1h3v1h1v1h1-5l-1-1-1-1h-2c-1.33,0-14.67-5-40-15l-38-15h4v-1h-1v-3h-1c-.67,0-1-.33-1-1Z"/>
    <path class="cls-86" d="M214.75,357.6l5,7v7-1l-1-1-1-1-3-2c-2.67-.67-5.33-.33-8,1-2,2-5.33,8-10,18s-8.33,20-11,30c-2.67,9.33-4.33,14-5,14v1h-1v1h-1v1h-1v1h-6v-1h-1v-1c-.67,0-1.67-1-3-3s-3-4.33-5-7-2.67-5.67-2-9,1-11.67,1-25,1.67-24,5-32c3.33-8.67,5.67-16.67,7-24,1.33-8,2.67-17.33,4-28,.67-10.67,4.33-14.67,11-12,6,2.67,9.67,10.67,11,24,1.33,14,3.67,23.33,7,28,2.67,4,5.33,8.67,8,14Z"/>
    <path class="cls-74" d="M211.75,320.6v-1h2v2h1v1h1v1h1v1h1v1l18,17c12,11.33,18.33,17.33,19,18,0,.67-.33,1-1,1-1.33.67-1.67,1.33-1,2v1l-4,7c-3.33,4.67-5,7.33-5,8v1h-1v1h-1v2h-1v1h-1v1l-1,1-1,1-1,1h-1v-19c-1.33-4-3.33-9-6-15s-4.33-9-5-9-1.67-.67-3-2c-.67-1.33-2.33-4.33-5-9l-3-7-1-4-1-3Z"/>
    <path class="cls-54" d="M948.75,731.6l4-5v1c-.67,1.33-1.67,3.33-3,6-1.33,2-2.33,3-3,3v1h-2v-1c.67-.67,2-2.33,4-5Z"/>
    <path class="cls-51" d="M304.75,404.6l-1-2h1c.67,0,1,.67,1,2,.67,1.33,1.33,2.33,2,3,1.33,0,2,.33,2,1v1c-.67,0-1-.33-1-1h-1v1c0,.67-.33.67-1,0h-1v-2c0-.67-.33-1.67-1-3Z"/>
    <path class="cls-107" d="M359.75,775.6v2l1,2,1,1v3h-1v1h-1v1h-11c-6,0-12-.33-18-1l-9-1-2-1-1-1h-4,39v-1h-1v-1h-1v-2l-1-1-1-1v-2h-1l-1-1c-.67-.67-5.67-1.67-15-3-9.33-2.67-17-5-23-7s-14.33-7.67-25-17l-15-13h-1v-1l-2-2c-2-2-2.67-3.33-2-4l3,3c2.67,2,10,7,22,15s24.67,13.33,38,16,21.33,4.33,24,5c2.67,1.33,4.67,3.33,6,6s2,4.33,2,5Z"/>
    <path class="cls-81" d="M916.75,349.6h1v1c0,.67-.67,1.67-2,3-1.33.67-3,4-5,10l-3,8s-.33-.33-1-1-1-.67-1,0c-.67.67-1.33,1-2,1h-1s1-3.67,3-11l4-10h2l1,1h-1v1c0,.67.33,1,1,1s1.33-.67,2-2,1.33-2,2-2Z"/>
    <path class="cls-56" d="M836.75,256.6v-1h2l38,15c25.33,10,38.67,15,40,15h2l1,1,1,1h5l4,2c3.33,1.33,5,2,5,2l1,1c0,.67.67,1,2,1h5v2c0,.67,3.33,2.33,10,5,6.67,3.33,10.33,5,11,5h1s.33.33,1,1v1h1s.33,1.67,1,5c1.33,2.67-.67,7.33-6,14s-8.33,10-9,10-1,.33-1,1-1.33,2-4,4-5.33,3.67-8,5c-3.33,1.33-5.33,1.67-6,1v-1l-1-1h-3l-1-1-1-1h-2c-.67,0-3-.67-7-2s-6.33-2.67-7-4c-1.33-.67-3.67-2.33-7-5-3.33-3.33-6.33-6.67-9-10s-4.67-5.67-6-7c-1.33-.67-2-2.67-2-6l-1-6v-2l-1-1v-1c0-1.33-.67-3-2-5-.67-2-4.67-5.33-12-10-8-4.67-15-9.67-21-15l-9-7c0-.67-.67-1.33-2-2l-1-1v-1h-1v-1l-1-1Z"/>
    <path class="cls-23" d="M576.75,359.6v-2h1c.67,0,1.33,1,2,3s1,3,1,3c.67,0,1-.33,1-1v-1l1-1,1-1v3h1v1h2v1h-1v1h-4v2c0,.67-.67,1.33-2,2h-1v1c-.67,0-1,.33-1,1-.67,1.33-1.67,1.67-3,1l-3-1v-2l2-1h1v-2c.67-1.33,1-2.33,1-3l1-2v-2Z"/>
    <path class="cls-82" d="M599.75,346.6h2v1c-.67,0-1,.33-1,1v7l-1,8v3h1v1h1v-1h1v1l3-1c2.67,0,4-.33,4-1,1.33-1.33,2-1.33,2,0,.67,1.33,1.33,2,2,2h1l-1,1,1,1c0,1.33-.33,2-1,2s-1,.33-1,1h-5v1h-4c-.67,0-1.33,1-2,3l-2,2c-.67.67-2,.67-4,0s-4.33-.67-7,0l-4,1s.33-.67,1-2c0-.67.67-1.33,2-2,1.33,0,2-.33,2-1s-1.33-1-4-1c-2.67-.67-4-.33-4,1-.67,1.33-.67,2,0,2,.67.67,1.33,1.33,2,2v1c-.67,0-1,.33-1,1h-1c0,.67-.67,1-2,1-.67,1.33-1,2-1,2v1c0,.67-.33,1-1,1h-1c-.67.67-1,1-1,1,0-.67-.67-.67-2,0h-2c0,.67-.33,1-1,1h-1v1l-1-1c0-.67-.33-1-1-1l-1-1h-1v-1h1c0-.67.33-1.33,1-2,0-.67-.67-1.33-2-2l-2-1h-2v-1l1-3,1-2h2l2-1c2-.67,3-1.33,3-2,.67-.67,1-1,1-1v2l2,1c0,.67.33.67,1,0,0-.67.67-1,2-1,.67-.67,1.33-1,2-1v-1h1c1.33-.67,2-1.33,2-2v-2h4v-1h1v-1h-2v-1h-1v-3l-1,1-1,1v1c0,.67-.33,1-1,1,0,0-.33-1-1-3s-1.33-3-2-3h-1v4h-1v-4h-1v-1h1v-1l10-4c7.33-2.67,12-4.33,14-5Z"/>
    <path class="cls-97" d="M613.75,445.6v3c0,1.33-.67,1.67-2,1h-1l-1-1h-1l-1,1c0,1.33-.33,2-1,2h-1v-1h-1v-1h-3v-1h-1v-1h-2v-1l1-1v-2l1-1,1-1,2-1c1.33-.67,2.33-1.33,3-2s1.67-1.33,3-2c1.33,0,2,.67,2,2,.67,2,1.33,2.67,2,2,1.33-.67,1.67-.33,1,1s-1,2-1,2q0-.67,0,0v2ZM609.75,442.6c-1.33-.67-1.33-1,0-1,.67,0,1,.33,1,1s-.33.67-1,0Z"/>
    <path class="cls-26" d="M944.75,529.6l4-17v1h1l-1,7c-.67,4.67-1,20.33-1,47s.33,41.33,1,42v2l-2,38c-2,26-3.67,42-5,48-2.67,5.33-4,8-4,8,0,.67-.33,1.33-1,2l-1,1v1-5h1v-1h1v-2c0-.67.33-1.33,1-2,.67-1.33,1-10.67,1-28s-.33-40.33-1-67-.33-43,1-49c0-6,1.67-14.67,5-26Z"/>
    <path class="cls-68" d="M484.75,15.6h-4v3h-1c-.67-.67-3.33-1-8-1-5.33,0-10.67,1.33-16,4-4.67,1.33-12,6-22,14-9.33,7.33-15.33,12.67-18,16s-6,6.33-10,9c-4,2.67-6.67,6.33-8,11v34c1.33,19.33,2,34.67,2,46v18s-.33,1.33-1,4l-1,5v7c-.67,5.33,0,5.67,2,1,1.33-4,2.33-6.33,3-7v-1h1v-3l1-1,1-1v-2c0-.67,1-3,3-7l3-6v-3l1-2,1-1v-1h1v1h1l-1,11c-.67,7.33-3,17.33-7,30-4,12-8.33,22.67-13,32s-10.33,18-17,26c-7.33,8-14.67,15-22,21-8,6-14.67,10.33-20,13-6,3.33-9.67,9-11,17-2,8-4.33,13.67-7,17-2.67,4-8,8-16,12s-12.67,6-14,6h-3l-1,1-1,1h1v1h1v1h1c1.33.67,2.67,3.33,4,8,2.67,4.67,5.33,13.67,8,27s4.33,20.33,5,21c.67,1.33,1,2.67,1,4v2h1v2c.67.67,1,1.33,1,2v2l1,4c.67,3.33,1.33,5.33,2,6l1,2v3l1-3,1-3v1l1,2,1,2v2c0,1.33.33,3.33,1,6v3h-1l-1,1h-1l-2,1-1,1h1-6c-2,0-3.33-.33-4-1s-1.67-2.33-3-5c-2-2.67-4-8-6-16l-3-12v-3c0-1.33-1-5-3-11s-3.67-9-5-9h-2v-1h-1v-1h-1v-1h-4v1h-1v1h-1v2c0,.67-.33,1-1,1h-1c0-.67-.33-1-1-1h-1v1l-1,1-1,1v-1h-1l-2,4c-2,2-3,3.33-3,4s-.33,1.33-1,2h-1v2h-1v2h-1v3l-5,7c-3.33,5.33-5,8.33-5,9v1h-1v1l-1,3c-1.33,1.33-2,2.33-2,3v1h-1v1l-4,9c-3.33,5.33-5,8.33-5,9v1h-1v1c0,.67-1,1.67-3,3-2,2.67-4.67,4-8,4h-8l-1-1-1-1h-2v-1h-1v-1h-1v-3l1-1,1-1c0-.67,4.67-8,14-22l14-21v-1l1-1,1-1v-2h1v-1h1v-2s2.33-3,7-9c4-6,6.67-11,8-15,1.33-3.33,1.67-5,1-5h-1v-1c-.67-.67-.33-1.33,1-2,.67,0,1-.33,1-1-.67-.67-7-6.67-19-18l-18-17v-1h-1v-1h-1v-1h-1v-1h-1v-2h-2v1l1,3,1,4,3,7c2.67,4.67,4.33,7.67,5,9,1.33,1.33,2.33,2,3,2s2.33,3,5,9,4.67,11,6,15v19h1l1-1,1-1,1-1v-1l1-1,1-1v-1h1v-1h1v2l-1,1-1,1v1l-1,1-1,1v1l-2,2c-1.33,1.33-2,2.33-2,3h-1v2h-1v2h-1v1h-1l-1,3c-.67,1.33-1.33,2-2,2v1h-1v2h-1v1h-1v2h-1v1c-.67,0-1,.33-1,1v1h-1v1h-1v2l-1,1-1,1v1h-1v1h-2v-1h1v-2h1v-1h1v-2h1v-1h1v-1c0-.67.33-1,1-1v-1h1v-2h1v-1h1v-1c0-.67.33-1.33,1-2h1v-2l1-2v-1h-1c-1.33.67-3,.67-5,0s-4.33-2.33-7-5l-4-4h-1v-1h-1v-1h-1v1h-1v1l-1,1-1,1v2c0,.67-2.67,7.67-8,21s-9,20.67-11,22c-2,2-4.67,3-8,3-3.33,1.33-6.67,1.33-10,0s-5.67-3.33-7-6c-1.33-3.33-2.67-6-4-8-2.67-2.67-4-5.33-4-8s.33-5.33,1-8c.67-2,1-9.33,1-22,0-13.33.67-22,2-26l1-6h1v-1l1-1,1-2v-1c0-.67.67-3,2-7s2-14.33,2-31c-1.33-16.67-1.33-26,0-28,0-2-.33-3.33-1-4s-3-3-7-7c-4-2.67-6.67-4-8-4l-3,1v1h-1v-2h1v-1h1l1-1c.67,0,1.33-4,2-12s3-17.33,7-28c4-11.33,10-23,18-35,7.33-11.33,14.67-23.33,22-36,6.67-12.67,12.33-21.67,17-27,4.67-5.33,10-10.67,16-16,6-4.67,9.33-7.33,10-8,0-.67.33-1,1-1s5-5,13-15c8-10.67,12.67-16.33,14-17s2-1.33,2-2,3.67-3,11-7,13.67-6.67,19-8,13-1.67,23-1c10.67.67,21.33,1.67,32,3s20,1.33,28,0c8-2,13-4.33,15-7,2-3.33,7.67-8.33,17-15,10-6.67,18.67-12,26-16,8-4,16.67-6,26-6s14.67.33,16,1c.67.67,1,1,1,1ZM353.75,241.6h-2l-2,1-2,1h-1v6h2l1-1,2-1h2c.67,0,1.33-.33,2-1l1-1h2l2-1,2-1h3l-1,1h-1v2h-1v1h-1l-1,1-1,1h-1s-3,2.67-9,8c-6.67,4-13.33,8.67-20,14-6.67,4.67-11.33,8.67-14,12s-4,8.67-4,16c-1.33,6.67-2.33,10.67-3,12-.67,2-1.33,3-2,3-.67.67-5,4.67-13,12-8.67,7.33-16.67,11.33-24,12s-11.33.33-12-1c-1.33-1.33-4-4.33-8-9s-6.33-7-7-7-2.33-1.67-5-5-4.67-6.33-6-9c-1.33-2-1.33-3.33,0-4,.67,0,1.67-1.67,3-5,2-3.33,4.67-11.33,8-24s7.67-24,13-34c5.33-10,9.67-16.67,13-20s8.33-8.33,15-15,13.67-14.67,21-24l11-14,1-1,1-1v-2l1-2v-3h-1l-1,1h-2v1h-1v1h-1l-1,1-1,1-6,5c-4,3.33-6.33,5.67-7,7-.67,2-1.33,3-2,3s-2,1.33-4,4c-2.67,3.33-8.67,8.33-18,15s-14.33,10.33-15,11c-1.33.67-2,1.33-2,2s-.33,1-1,1-5,6.67-13,20c-7.33,12.67-13,24-17,34-2.67,10-4.33,15.67-5,17l-1,2v1h-2v-1h-1v-1l-23-12c-14.67-8.67-22-15.67-22-21,1.33-5.33,4.67-13.67,10-25,5.33-12,14.67-28.67,28-50,12.67-21.33,21.67-34.67,27-40s11-11.33,17-18c6.67-7.33,13-14.67,19-22,6.67-6.67,12.67-12,18-16,5.33-2.67,11-4.67,17-6,6.67-1.33,14-2,22-2s16,.67,24,2c8.67,1.33,16,2,22,2,5.33-.67,8.33,7.33,9,24s1.67,28,3,34v30c0,14-1,27-3,39s-3.67,19.67-5,23c-1.33,2.67-6,6-14,10-7.33,4-11.33,6-12,6ZM214.75,357.6l5,7v7-1l-1-1-1-1-3-2c-2.67-.67-5.33-.33-8,1-2,2-5.33,8-10,18s-8.33,20-11,30c-2.67,9.33-4.33,14-5,14v1h-1v1h-1v1h-1v1h-6v-1h-1v-1c-.67,0-1.67-1-3-3s-3-4.33-5-7-2.67-5.67-2-9,1-11.67,1-25,1.67-24,5-32c3.33-8.67,5.67-16.67,7-24,1.33-8,2.67-17.33,4-28,.67-10.67,4.33-14.67,11-12,6,2.67,9.67,10.67,11,24,1.33,14,3.67,23.33,7,28,2.67,4,5.33,8.67,8,14ZM275.75,376.6c0-.67.67-.33,2,1,1.33,0,1.67,0,1,0h-2c-.67,0-.67-.33,0-1h-1Z"/>
    <path class="cls-94" d="M599.75,447.6v-1s.33.33,1,1l1,1v1h3v1h1v1h1l-1,1c0,.67.33,1.33,1,2s.67,2,0,4c-1.33,2-1.33,3,0,3s2,.67,2,2v2h-1v1c-.67.67-1,1-1,1l-1,2c-.67,1.33-1,2-1,2h-2v1h-1v-5c0-2.67-.33-4.33-1-5s-1.33-1.67-2-3c-.67-2-1-4.67-1-8l1-4h1Z"/>
    <path class="cls-79" d="M668.75,390.6c2,.67,2.33,1,1,1-.67,0-1.33.67-2,2-.67.67-.67,1.33,0,2,1.33,0,2,2,2,6,.67,4,.67,6,0,6s-1.33-.67-2-2c0-1.33-.67-4.33-2-9s-1.67-7-1-7,2,.33,4,1Z"/>
    <path class="cls-7" d="M608.75,373.6v-1h4c0,.67.33,1,1,1l1,1c.67.67,1.33,1.33,2,2,.67,0,1.33.33,2,1,.67,1.33,1,1.67,1,1,.67-.67,1.67-1,3-1h4c-.67.67-1.33,1.67-2,3l-2,2c-.67,0-1,1-1,3,0,1.33-.67,1.67-2,1s-2.33-1.67-3-3l-1-3v-1c0-.67-.33-1-1-1s-1,1-1,3l-1,2c-.67,0-1.33-1.33-2-4l-1-4h1c.67,0,.33-.33-1-1l-2-1h1Z"/>
    <path class="cls-110" d="M897.75,417.6l1-18v16c-.67,10-1,16.33-1,19v4l-1,3c-.67,2.67-1,4-1,4v-5c0-3.33.67-11,2-23Z"/>
    <path class="cls-76" d="M986.75,295.6h-1v1h-1v1h-2v-2c-.67-1.33-1.67-4.33-3-9s-4-11.33-8-20-8.33-16.67-13-24-11.33-15-20-23c-8.67-7.33-13-11.33-13-12s-5.33-5.67-16-15l-16-14h-1v-1h-1l-1-1-1-1h-1l-1-1h-2v4l1,1,1,2v1l9,11c6,6.67,13,14.33,21,23s13.67,15,17,19c3.33,3.33,7.67,10.33,13,21,5.33,10.67,9.33,19.67,12,27s4,11.67,4,13v6h-2l-1-1h-2l-1-1c-.67-.67-3.33-1.67-8-3l-7-3v-1h-3l-2-1-3-1s-1.67-.67-5-2l-4-2h-1v-1h-1v-1h-3l-1-1-1-1h-1c-.67,0-6.33-2.67-17-8-10-4.67-22.67-10-38-16l-22-9v-1h-2c-.67,0-2.33-1-5-3l-6-6c-2.67-2-4.67-10.33-6-25-2.67-14.67-4-27.67-4-39v-27c1.33-6.67,2.33-18,3-34l2-24,8,1c5.33.67,13.67,0,25-2,10.67-2,20-2.67,28-2s16,2.33,24,5c8.67,3.33,13,5.33,13,6s1.33,2,4,4c3.33,2.67,8.33,8.67,15,18,8,10,15.33,18,22,24,6.67,6.67,12,12.67,16,18,4,6,8.33,13,13,21,4.67,8.67,11.33,20.67,20,36s14.33,26.33,17,33c2.67,7.33,3.67,12.33,3,15s-6.67,7-18,13c-11.33,6.67-18.33,10.67-21,12s-4.33,2-5,2ZM845.75,170.6h8c4,.67,6,1,6,1h1l5,3c4,2,6.67,4.33,8,7,2.67,2.67,4,4.67,4,6v1l1,5c.67,3.33-.33,7.33-3,12-1.33,4.67-2.33,7-3,7v1h-1v1h-1v1h-1v1h-1v1h-2v1h-1c0,.67-.67,1-2,1-2,1.33-6,2-12,2h-10c-2-1.33-4.67-3.33-8-6l-4-6-1-1-1-1v-3c-.67-.67-1-1-1-1v-6c.67-4.67,2-9,4-13s3.67-6.67,5-8c1.33-.67,2-1.33,2-2h1l1-1c.67,0,1.33-.33,2-1l2-1c1.33,0,2-.33,2-1Z"/>
  </g>
  <rect class="cls-118" x="352" y="291" width="438" height="353"/>
  <image width="452" height="450" transform="translate(818.5 169.25) scale(.14)" xlink:href="../../Public/Drop Box/NLMAF_LOGO_2shues_smallcropped.png"/>
</svg>